<svg xmlns="http://www.w3.org/2000/svg" xmlns:xlink="http://www.w3.org/1999/xlink" xmlns:lucid="lucid" width="1201" height="1100"><g transform="translate(-1159.5 -59.5)" lucid:page-tab-id="0_0"><path d="M1540 488a8 8 0 0 1 8-8h364a8 8 0 0 1 8 8v88a8 8 0 0 1-8 8h-364a8 8 0 0 1-8-8z" fill="#fff"/><path d="M1540 488a8 8 0 0 1 8-8h364a8 8 0 0 1 8 8v88a8 8 0 0 1-8 8h-364a8 8 0 0 1-8-8zM1540 520h380M1600 520v64" stroke="#333" fill="none"/><use xlink:href="#a" transform="matrix(1,0,0,1,1550,480) translate(136.575 23.6)"/><use xlink:href="#b" transform="matrix(1,0,0,1,1545,522.5) translate(13 17.1)"/><use xlink:href="#c" transform="matrix(1,0,0,1,1605,522.5) translate(105.57499999999999 17.1)"/><use xlink:href="#d" transform="matrix(1,0,0,1,1605,554.5) translate(46.32499999999999 17.1)"/><use xlink:href="#e" transform="matrix(1,0,0,1,1605,554.5) translate(175.225 17.1)"/><use xlink:href="#f" transform="matrix(1,0,0,1,1605,554.5) translate(217.775 17.1)"/><path d="M1180 88a8 8 0 0 1 8-8h304a8 8 0 0 1 8 8v184a8 8 0 0 1-8 8h-304a8 8 0 0 1-8-8z" fill="#fff"/><path d="M1180 88a8 8 0 0 1 8-8h304a8 8 0 0 1 8 8v184a8 8 0 0 1-8 8h-304a8 8 0 0 1-8-8zM1180 120h320M1240 120v160" stroke="#333" fill="none"/><use xlink:href="#g" transform="matrix(1,0,0,1,1190,80) translate(124.55 23.6)"/><use xlink:href="#b" transform="matrix(1,0,0,1,1185,122.5) translate(13 17.1)"/><use xlink:href="#h" transform="matrix(1,0,0,1,1245,122.5) translate(87.57499999999999 17.1)"/><use xlink:href="#i" transform="matrix(1,0,0,1,1245,154.5) translate(39.39506172839508 17.055555555555557)"/><use xlink:href="#j" transform="matrix(1,0,0,1,1245,154.5) translate(123.24691358024691 17.055555555555557)"/><use xlink:href="#k" transform="matrix(1,0,0,1,1245,154.5) translate(165.2716049382716 17.055555555555557)"/><use xlink:href="#l" transform="matrix(1,0,0,1,1245,186.5) translate(7.874999999999986 17.1)"/><use xlink:href="#m" transform="matrix(1,0,0,1,1245,186.5) translate(12.874999999999986 17.1)"/><use xlink:href="#e" transform="matrix(1,0,0,1,1245,186.5) translate(153.675 17.1)"/><use xlink:href="#f" transform="matrix(1,0,0,1,1245,186.5) translate(196.22500000000002 17.1)"/><use xlink:href="#n" transform="matrix(1,0,0,1,1245,218.5) translate(27.39999999999999 17.1)"/><use xlink:href="#e" transform="matrix(1,0,0,1,1245,218.5) translate(134.15 17.1)"/><use xlink:href="#f" transform="matrix(1,0,0,1,1245,218.5) translate(176.7 17.1)"/><use xlink:href="#o" transform="matrix(1,0,0,1,1245,250.5) translate(35.8 17.1)"/><use xlink:href="#e" transform="matrix(1,0,0,1,1245,250.5) translate(125.75 17.1)"/><use xlink:href="#f" transform="matrix(1,0,0,1,1245,250.5) translate(168.3 17.1)"/><path d="M1580 88a8 8 0 0 1 8-8h284a8 8 0 0 1 8 8v248a8 8 0 0 1-8 8h-284a8 8 0 0 1-8-8z" fill="#fff"/><path d="M1580 88a8 8 0 0 1 8-8h284a8 8 0 0 1 8 8v248a8 8 0 0 1-8 8h-284a8 8 0 0 1-8-8zM1580 120h300M1640 120v224" stroke="#333" fill="none"/><use xlink:href="#p" transform="matrix(1,0,0,1,1590,80) translate(117.075 23.6)"/><use xlink:href="#b" transform="matrix(1,0,0,1,1585,122.5) translate(13 17.1)"/><use xlink:href="#q" transform="matrix(1,0,0,1,1645,122.5) translate(81.6 17.1)"/><use xlink:href="#r" transform="matrix(1,0,0,1,1585,154.5) translate(13 17.1)"/><use xlink:href="#s" transform="matrix(1,0,0,1,1645,154.5) translate(38.575 17.1)"/><use xlink:href="#t" transform="matrix(1,0,0,1,1645,154.5) translate(43.575 17.1)"/><use xlink:href="#u" transform="matrix(1,0,0,1,1645,186.5) translate(19.375 17.1)"/><use xlink:href="#e" transform="matrix(1,0,0,1,1645,186.5) translate(122.175 17.1)"/><use xlink:href="#f" transform="matrix(1,0,0,1,1645,186.5) translate(164.725 17.1)"/><use xlink:href="#v" transform="matrix(1,0,0,1,1645,218.5) translate(51.625 17.1)"/><use xlink:href="#w" transform="matrix(1,0,0,1,1645,218.5) translate(99.475 17.1)"/><use xlink:href="#x" transform="matrix(1,0,0,1,1645,250.5) translate(65.65 17.1)"/><use xlink:href="#y" transform="matrix(1,0,0,1,1645,282.5) translate(67.55 17.1)"/><use xlink:href="#z" transform="matrix(1,0,0,1,1645,314.5) translate(72.525 17.1)"/><path d="M2000 88a8 8 0 0 1 8-8h324a8 8 0 0 1 8 8v1021a8 8 0 0 1-8 8h-324a8 8 0 0 1-8-8z" fill="#fff"/><path d="M2000 88a8 8 0 0 1 8-8h324a8 8 0 0 1 8 8v1021a8 8 0 0 1-8 8h-324a8 8 0 0 1-8-8zM2000 120h340M2060 120v997" stroke="#333" fill="none"/><use xlink:href="#A" transform="matrix(1,0,0,1,2010,80) translate(124.525 23.6)"/><use xlink:href="#b" transform="matrix(1,0,0,1,2005,122.5) translate(13 17.1)"/><use xlink:href="#B" transform="matrix(1,0,0,1,2065,122.5) translate(105.05 17.1)"/><use xlink:href="#C" transform="matrix(1,0,0,1,2065,154.5) translate(54.874999999999986 17.1)"/><use xlink:href="#e" transform="matrix(1,0,0,1,2065,154.5) translate(126.675 17.1)"/><use xlink:href="#f" transform="matrix(1,0,0,1,2065,154.5) translate(169.22500000000002 17.1)"/><use xlink:href="#D" transform="matrix(1,0,0,1,2065,186.5) translate(41.82499999999999 16.799999999999997)"/><use xlink:href="#e" transform="matrix(1,0,0,1,2065,186.5) translate(139.725 16.799999999999997)"/><use xlink:href="#E" transform="matrix(1,0,0,1,2065,186.5) translate(182.275 16.799999999999997)"/><use xlink:href="#F" transform="matrix(1,0,0,1,2065,186.5) translate(135 38.4)"/><use xlink:href="#G" transform="matrix(1,0,0,1,2065,239.5) translate(30.82499999999999 16.799999999999997)"/><use xlink:href="#e" transform="matrix(1,0,0,1,2065,239.5) translate(150.725 16.799999999999997)"/><use xlink:href="#E" transform="matrix(1,0,0,1,2065,239.5) translate(193.275 16.799999999999997)"/><use xlink:href="#F" transform="matrix(1,0,0,1,2065,239.5) translate(135 38.4)"/><use xlink:href="#H" transform="matrix(1,0,0,1,2065,292.5) translate(44.849999999999994 16.799999999999997)"/><use xlink:href="#e" transform="matrix(1,0,0,1,2065,292.5) translate(136.7 16.799999999999997)"/><use xlink:href="#E" transform="matrix(1,0,0,1,2065,292.5) translate(179.25 16.799999999999997)"/><use xlink:href="#F" transform="matrix(1,0,0,1,2065,292.5) translate(135 38.4)"/><use xlink:href="#I" transform="matrix(1,0,0,1,2065,345.5) translate(68.82499999999999 16.799999999999997)"/><use xlink:href="#e" transform="matrix(1,0,0,1,2065,345.5) translate(112.725 16.799999999999997)"/><use xlink:href="#E" transform="matrix(1,0,0,1,2065,345.5) translate(155.27499999999998 16.799999999999997)"/><use xlink:href="#F" transform="matrix(1,0,0,1,2065,345.5) translate(135 38.4)"/><use xlink:href="#J" transform="matrix(1,0,0,1,2065,398.5) translate(58.825000000000045 16.800000000000004)"/><use xlink:href="#K" transform="matrix(1,0,0,1,2065,398.5) translate(122.72500000000001 16.800000000000004)"/><use xlink:href="#L" transform="matrix(1,0,0,1,2065,398.5) translate(165.27499999999998 16.800000000000004)"/><use xlink:href="#M" transform="matrix(1,0,0,1,2065,398.5) translate(135 38.39999999999999)"/><use xlink:href="#N" transform="matrix(1,0,0,1,2065,451.5) translate(98.495 16.799999999999997)"/><use xlink:href="#O" transform="matrix(1,0,0,1,2065,451.5) translate(170.505 16.799999999999997)"/><use xlink:href="#F" transform="matrix(1,0,0,1,2065,451.5) translate(135 38.4)"/><g><use xlink:href="#P" transform="matrix(1,0,0,1,2065,504.5) translate(98.495 16.799999999999997)"/><use xlink:href="#O" transform="matrix(1,0,0,1,2065,504.5) translate(170.505 16.799999999999997)"/><use xlink:href="#F" transform="matrix(1,0,0,1,2065,504.5) translate(135 38.4)"/></g><g><use xlink:href="#Q" transform="matrix(1,0,0,1,2065,557.5) translate(98.495 16.799999999999997)"/><use xlink:href="#O" transform="matrix(1,0,0,1,2065,557.5) translate(170.505 16.799999999999997)"/><use xlink:href="#F" transform="matrix(1,0,0,1,2065,557.5) translate(135 38.4)"/></g><g><use xlink:href="#o" transform="matrix(1,0,0,1,2065,610.5) translate(46.125 16.799999999999997)"/><use xlink:href="#e" transform="matrix(1,0,0,1,2065,610.5) translate(136.075 16.799999999999997)"/><use xlink:href="#R" transform="matrix(1,0,0,1,2065,610.5) translate(178.625 16.799999999999997)"/><use xlink:href="#F" transform="matrix(1,0,0,1,2065,610.5) translate(135 38.4)"/></g><g><use xlink:href="#S" transform="matrix(1,0,0,1,2065,663.5) translate(98.495 16.799999999999997)"/><use xlink:href="#O" transform="matrix(1,0,0,1,2065,663.5) translate(170.505 16.799999999999997)"/><use xlink:href="#F" transform="matrix(1,0,0,1,2065,663.5) translate(135 38.4)"/></g><g><use xlink:href="#T" transform="matrix(1,0,0,1,2065,716.5) translate(98.495 16.799999999999997)"/><use xlink:href="#O" transform="matrix(1,0,0,1,2065,716.5) translate(170.505 16.799999999999997)"/><use xlink:href="#F" transform="matrix(1,0,0,1,2065,716.5) translate(135 38.4)"/></g><g><use xlink:href="#U" transform="matrix(1,0,0,1,2065,769.5) translate(98.495 16.799999999999997)"/><use xlink:href="#O" transform="matrix(1,0,0,1,2065,769.5) translate(170.505 16.799999999999997)"/><use xlink:href="#F" transform="matrix(1,0,0,1,2065,769.5) translate(135 38.4)"/></g><g><use xlink:href="#V" transform="matrix(1,0,0,1,2065,822.5) translate(98.495 16.799999999999997)"/><use xlink:href="#W" transform="matrix(1,0,0,1,2065,822.5) translate(113.495 16.799999999999997)"/><use xlink:href="#O" transform="matrix(1,0,0,1,2065,822.5) translate(170.505 16.799999999999997)"/><use xlink:href="#F" transform="matrix(1,0,0,1,2065,822.5) translate(135 38.4)"/></g><g><use xlink:href="#X" transform="matrix(1,0,0,1,2065,875.5) translate(114.025 17.1)"/></g><g><use xlink:href="#Y" transform="matrix(1,0,0,1,2065,907.5) translate(114.025 16.799999999999997)"/><use xlink:href="#F" transform="matrix(1,0,0,1,2065,907.5) translate(135 38.4)"/></g><g><use xlink:href="#Z" transform="matrix(1,0,0,1,2065,960.5) translate(70.27 16.799999999999997)"/><use xlink:href="#aa" transform="matrix(1,0,0,1,2065,960.5) translate(106.28 16.799999999999997)"/><use xlink:href="#e" transform="matrix(1,0,0,1,2065,960.5) translate(111.28 16.799999999999997)"/><use xlink:href="#E" transform="matrix(1,0,0,1,2065,960.5) translate(153.82999999999998 16.799999999999997)"/><use xlink:href="#F" transform="matrix(1,0,0,1,2065,960.5) translate(135 38.4)"/></g><g><use xlink:href="#ab" transform="matrix(1,0,0,1,2065,1013.5) translate(65.3 16.799999999999997)"/><use xlink:href="#e" transform="matrix(1,0,0,1,2065,1013.5) translate(116.25 16.799999999999997)"/><use xlink:href="#E" transform="matrix(1,0,0,1,2065,1013.5) translate(158.8 16.799999999999997)"/><use xlink:href="#F" transform="matrix(1,0,0,1,2065,1013.5) translate(135 38.4)"/></g><g><use xlink:href="#ac" transform="matrix(1,0,0,1,2065,1066.5) translate(58.3 16.799999999999997)"/><use xlink:href="#e" transform="matrix(1,0,0,1,2065,1066.5) translate(123.25 16.799999999999997)"/><use xlink:href="#E" transform="matrix(1,0,0,1,2065,1066.5) translate(165.8 16.799999999999997)"/><use xlink:href="#F" transform="matrix(1,0,0,1,2065,1066.5) translate(135 38.4)"/></g><path d="M1520.5 100h7.5a12 12 0 0 1 12 12v76a12 12 0 0 0 12 12h8.1" stroke="#333" fill="none"/><path d="M1520.5 110V90M1500.5 100h20" stroke="#333" fill="#fff"/><path d="M1579.28 210l-20-10 20-10" stroke="#333" fill="#fff" fill-opacity="0"/><path d="M1579.28 200h-20" stroke="#333" fill="#fff"/><path d="M1900.5 200h34.25a5.25 5.25 0 0 1 5.25 5.25 5.25 5.25 0 0 0 5.25 5.25h34.84" stroke="#333" fill="none"/><path d="M1900.5 210v-20M1880.5 200h20" stroke="#333" fill="#fff"/><path d="M1999.28 220.5l-20-10 20-10" stroke="#333" fill="#fff" fill-opacity="0"/><path d="M1999.28 210.5h-20" stroke="#333" fill="#fff"/><path d="M1940.5 536h7.5a12 12 0 0 0 12-12V381.5a12 12 0 0 1 12-12h8.1" stroke="#333" fill="none"/><path d="M1940.5 546v-20M1920.5 536h20" stroke="#333" fill="#fff"/><path d="M1999.28 379.5l-20-10 20-10" stroke="#333" fill="#fff" fill-opacity="0"/><path d="M1999.28 369.5h-20" stroke="#333" fill="#fff"/><path d="M2170 1137.5v15.98a4.02 4.02 0 0 0 4.02 4.02 4.02 4.02 0 0 0 4-4.02v-34.9" stroke="#333" fill="none"/><path d="M2160 1137.5h20M2170 1117.5v20" stroke="#333" fill="#fff"/><path d="M2188.03 1099.4l-10 20-10-20" stroke="#333" fill="#fff" fill-opacity="0"/><path d="M2178.03 1099.4v20" stroke="#333" fill="#fff"/><defs><path d="M212-179c-10-28-35-45-73-45-59 0-87 40-87 99 0 60 29 101 89 101 43 0 62-24 78-52l27 14C228-24 195 4 139 4 59 4 22-46 18-125c-6-104 99-153 187-111 19 9 31 26 39 46" id="ad"/><path d="M141-36C126-15 110 5 73 4 37 3 15-17 15-53c-1-64 63-63 125-63 3-35-9-54-41-54-24 1-41 7-42 31l-33-3c5-37 33-52 76-52 45 0 72 20 72 64v82c-1 20 7 32 28 27v20c-31 9-61-2-59-35zM48-53c0 20 12 33 32 33 41-3 63-29 60-74-43 2-92-5-92 41" id="ae"/><path d="M59-47c-2 24 18 29 38 22v24C64 9 27 4 27-40v-127H5v-23h24l9-43h21v43h35v23H59v120" id="af"/><path d="M100-194c63 0 86 42 84 106H49c0 40 14 67 53 68 26 1 43-12 49-29l28 8c-11 28-37 45-77 45C44 4 14-33 15-96c1-61 26-98 85-98zm52 81c6-60-76-77-97-28-3 7-6 17-6 28h103" id="ag"/><path d="M177-190C167-65 218 103 67 71c-23-6-38-20-44-43l32-5c15 47 100 32 89-28v-30C133-14 115 1 83 1 29 1 15-40 15-95c0-56 16-97 71-98 29-1 48 16 59 35 1-10 0-23 2-32h30zM94-22c36 0 50-32 50-73 0-42-14-75-50-75-39 0-46 34-46 75s6 73 46 73" id="ah"/><path d="M100-194c62-1 85 37 85 99 1 63-27 99-86 99S16-35 15-95c0-66 28-99 85-99zM99-20c44 1 53-31 53-75 0-43-8-75-51-75s-53 32-53 75 10 74 51 75" id="ai"/><path d="M114-163C36-179 61-72 57 0H25l-1-190h30c1 12-1 29 2 39 6-27 23-49 58-41v29" id="aj"/><path d="M24-231v-30h32v30H24zM24 0v-190h32V0H24" id="ak"/><path d="M135-143c-3-34-86-38-87 0 15 53 115 12 119 90S17 21 10-45l28-5c4 36 97 45 98 0-10-56-113-15-118-90-4-57 82-63 122-42 12 7 21 19 24 35" id="al"/><g id="a"><use transform="matrix(0.05,0,0,0.05,0,0)" xlink:href="#ad"/><use transform="matrix(0.05,0,0,0.05,12.950000000000001,0)" xlink:href="#ae"/><use transform="matrix(0.05,0,0,0.05,22.950000000000003,0)" xlink:href="#af"/><use transform="matrix(0.05,0,0,0.05,27.950000000000003,0)" xlink:href="#ag"/><use transform="matrix(0.05,0,0,0.05,37.95,0)" xlink:href="#ah"/><use transform="matrix(0.05,0,0,0.05,47.95,0)" xlink:href="#ai"/><use transform="matrix(0.05,0,0,0.05,57.95,0)" xlink:href="#aj"/><use transform="matrix(0.05,0,0,0.05,63.900000000000006,0)" xlink:href="#ak"/><use transform="matrix(0.05,0,0,0.05,67.85000000000001,0)" xlink:href="#ag"/><use transform="matrix(0.05,0,0,0.05,77.85000000000001,0)" xlink:href="#al"/></g><path d="M30-248c87 1 191-15 191 75 0 78-77 80-158 76V0H30v-248zm33 125c57 0 124 11 124-50 0-59-68-47-124-48v98" id="am"/><path d="M194 0L95-120 63-95V0H30v-248h33v124l119-124h40L117-140 236 0h-42" id="an"/><g id="b"><use transform="matrix(0.05,0,0,0.05,0,0)" xlink:href="#am"/><use transform="matrix(0.05,0,0,0.05,12,0)" xlink:href="#an"/></g><path d="M96-169c-40 0-48 33-48 73s9 75 48 75c24 0 41-14 43-38l32 2c-6 37-31 61-74 61-59 0-76-41-82-99-10-93 101-131 147-64 4 7 5 14 7 22l-32 3c-4-21-16-35-41-35" id="ao"/><path d="M179-190L93 31C79 59 56 82 12 73V49c39 6 53-20 64-50L1-190h34L92-34l54-156h33" id="ap"/><path d="M-5 72V49h209v23H-5" id="aq"/><path d="M85-194c31 0 48 13 60 33l-1-100h32l1 261h-30c-2-10 0-23-3-31C134-8 116 4 85 4 32 4 16-35 15-94c0-66 23-100 70-100zm9 24c-40 0-46 34-46 75 0 40 6 74 45 74 42 0 51-32 51-76 0-42-9-74-50-73" id="ar"/><g id="c"><use transform="matrix(0.05,0,0,0.05,0,0)" xlink:href="#ao"/><use transform="matrix(0.05,0,0,0.05,9,0)" xlink:href="#ai"/><use transform="matrix(0.05,0,0,0.05,19,0)" xlink:href="#af"/><use transform="matrix(0.05,0,0,0.05,24,0)" xlink:href="#ag"/><use transform="matrix(0.05,0,0,0.05,34,0)" xlink:href="#aj"/><use transform="matrix(0.05,0,0,0.05,39.95,0)" xlink:href="#ah"/><use transform="matrix(0.05,0,0,0.05,49.95,0)" xlink:href="#ai"/><use transform="matrix(0.05,0,0,0.05,59.95,0)" xlink:href="#aj"/><use transform="matrix(0.05,0,0,0.05,65.9,0)" xlink:href="#ap"/><use transform="matrix(0.05,0,0,0.05,74.9,0)" xlink:href="#aq"/><use transform="matrix(0.05,0,0,0.05,84.9,0)" xlink:href="#ak"/><use transform="matrix(0.05,0,0,0.05,88.85000000000001,0)" xlink:href="#ar"/><path d="M-.9 1.25H99.75v1.32H-.9z"/></g><path d="M117-194c89-4 53 116 60 194h-32v-121c0-31-8-49-39-48C34-167 62-67 57 0H25l-1-190h30c1 10-1 24 2 32 11-22 29-35 61-36" id="as"/><path d="M210-169c-67 3-38 105-44 169h-31v-121c0-29-5-50-35-48C34-165 62-65 56 0H25l-1-190h30c1 10-1 24 2 32 10-44 99-50 107 0 11-21 27-35 58-36 85-2 47 119 55 194h-31v-121c0-29-5-49-35-48" id="at"/><g id="d"><use transform="matrix(0.05,0,0,0.05,0,0)" xlink:href="#ao"/><use transform="matrix(0.05,0,0,0.05,9,0)" xlink:href="#ae"/><use transform="matrix(0.05,0,0,0.05,19,0)" xlink:href="#af"/><use transform="matrix(0.05,0,0,0.05,24,0)" xlink:href="#ag"/><use transform="matrix(0.05,0,0,0.05,34,0)" xlink:href="#ah"/><use transform="matrix(0.05,0,0,0.05,44,0)" xlink:href="#ai"/><use transform="matrix(0.05,0,0,0.05,54,0)" xlink:href="#aj"/><use transform="matrix(0.05,0,0,0.05,59.95,0)" xlink:href="#ap"/><use transform="matrix(0.05,0,0,0.05,68.95,0)" xlink:href="#aq"/><use transform="matrix(0.05,0,0,0.05,78.95,0)" xlink:href="#as"/><use transform="matrix(0.05,0,0,0.05,88.95,0)" xlink:href="#ae"/><use transform="matrix(0.05,0,0,0.05,98.95,0)" xlink:href="#at"/><use transform="matrix(0.05,0,0,0.05,113.9,0)" xlink:href="#ag"/></g><path d="M190 0L58-211 59 0H30v-248h39L202-35l-2-213h31V0h-41" id="au"/><path d="M140-251c81 0 123 46 123 126C263-46 219 4 140 4 59 4 17-45 17-125s42-126 123-126zm0 227c63 0 89-41 89-101s-29-99-89-99c-61 0-89 39-89 99S79-25 140-24" id="av"/><path d="M127-220V0H93v-220H8v-28h204v28h-85" id="aw"/><g id="e"><use transform="matrix(0.05,0,0,0.05,0,0)" xlink:href="#au"/><use transform="matrix(0.05,0,0,0.05,12.950000000000001,0)" xlink:href="#av"/><use transform="matrix(0.05,0,0,0.05,26.950000000000003,0)" xlink:href="#aw"/></g><path d="M232-93c-1 65-40 97-104 97C67 4 28-28 28-90v-158h33c8 89-33 224 67 224 102 0 64-133 71-224h33v155" id="ax"/><path d="M30 0v-248h33v221h125V0H30" id="ay"/><g id="f"><use transform="matrix(0.05,0,0,0.05,0,0)" xlink:href="#au"/><use transform="matrix(0.05,0,0,0.05,12.950000000000001,0)" xlink:href="#ax"/><use transform="matrix(0.05,0,0,0.05,25.900000000000002,0)" xlink:href="#ay"/><use transform="matrix(0.05,0,0,0.05,35.900000000000006,0)" xlink:href="#ay"/></g><path d="M205 0l-28-72H64L36 0H1l101-248h38L239 0h-34zm-38-99l-47-123c-12 45-31 82-46 123h93" id="az"/><g id="g"><use transform="matrix(0.05,0,0,0.05,0,0)" xlink:href="#az"/><use transform="matrix(0.05,0,0,0.05,12,0)" xlink:href="#ar"/><use transform="matrix(0.05,0,0,0.05,22,0)" xlink:href="#at"/><use transform="matrix(0.05,0,0,0.05,36.95,0)" xlink:href="#ak"/><use transform="matrix(0.05,0,0,0.05,40.900000000000006,0)" xlink:href="#as"/></g><g id="h"><use transform="matrix(0.05,0,0,0.05,0,0)" xlink:href="#az"/><use transform="matrix(0.05,0,0,0.05,12,0)" xlink:href="#ar"/><use transform="matrix(0.05,0,0,0.05,22,0)" xlink:href="#at"/><use transform="matrix(0.05,0,0,0.05,36.95,0)" xlink:href="#ak"/><use transform="matrix(0.05,0,0,0.05,40.900000000000006,0)" xlink:href="#as"/><use transform="matrix(0.05,0,0,0.05,50.900000000000006,0)" xlink:href="#aq"/><use transform="matrix(0.05,0,0,0.05,60.900000000000006,0)" xlink:href="#ak"/><use transform="matrix(0.05,0,0,0.05,64.85000000000001,0)" xlink:href="#ar"/><path d="M-.9 1.25h76.65v1.32H-.9z"/></g><path d="M84 4C-5 8 30-112 23-190h32v120c0 31 7 50 39 49 72-2 45-101 50-169h31l1 190h-30c-1-10 1-25-2-33-11 22-28 36-60 37" id="aA"/><g id="i"><use transform="matrix(0.049382716049382706,0,0,0.049382716049382706,0,0)" xlink:href="#aA"/><use transform="matrix(0.049382716049382706,0,0,0.049382716049382706,9.87654320987654,0)" xlink:href="#al"/><use transform="matrix(0.049382716049382706,0,0,0.049382716049382706,18.76543209876543,0)" xlink:href="#ag"/><use transform="matrix(0.049382716049382706,0,0,0.049382716049382706,28.64197530864197,0)" xlink:href="#aj"/><use transform="matrix(0.049382716049382706,0,0,0.049382716049382706,34.51851851851851,0)" xlink:href="#as"/><use transform="matrix(0.049382716049382706,0,0,0.049382716049382706,44.39506172839505,0)" xlink:href="#ae"/><use transform="matrix(0.049382716049382706,0,0,0.049382716049382706,54.271604938271594,0)" xlink:href="#at"/><use transform="matrix(0.049382716049382706,0,0,0.049382716049382706,69.03703703703702,0)" xlink:href="#ag"/></g><g id="j"><use transform="matrix(0.049382716049382706,0,0,0.049382716049382706,0,0)" xlink:href="#au"/><use transform="matrix(0.049382716049382706,0,0,0.049382716049382706,12.790123456790122,0)" xlink:href="#av"/><use transform="matrix(0.049382716049382706,0,0,0.049382716049382706,26.617283950617278,0)" xlink:href="#aw"/></g><g id="k"><use transform="matrix(0.049382716049382706,0,0,0.049382716049382706,0,0)" xlink:href="#au"/><use transform="matrix(0.049382716049382706,0,0,0.049382716049382706,12.790123456790122,0)" xlink:href="#ax"/><use transform="matrix(0.049382716049382706,0,0,0.049382716049382706,25.580246913580243,0)" xlink:href="#ay"/><use transform="matrix(0.049382716049382706,0,0,0.049382716049382706,35.456790123456784,0)" xlink:href="#ay"/></g><path d="M115-194c55 1 70 41 70 98S169 2 115 4C84 4 66-9 55-30l1 105H24l-1-265h31l2 30c10-21 28-34 59-34zm-8 174c40 0 45-34 45-75s-6-73-45-74c-42 0-51 32-51 76 0 43 10 73 51 73" id="aB"/><path d="M206 0h-36l-40-164L89 0H53L-1-190h32L70-26l43-164h34l41 164 42-164h31" id="aC"/><g id="m"><use transform="matrix(0.05,0,0,0.05,0,0)" xlink:href="#ae"/><use transform="matrix(0.05,0,0,0.05,10,0)" xlink:href="#ar"/><use transform="matrix(0.05,0,0,0.05,20,0)" xlink:href="#at"/><use transform="matrix(0.05,0,0,0.05,34.95,0)" xlink:href="#ak"/><use transform="matrix(0.05,0,0,0.05,38.900000000000006,0)" xlink:href="#as"/><use transform="matrix(0.05,0,0,0.05,48.900000000000006,0)" xlink:href="#aq"/><use transform="matrix(0.05,0,0,0.05,58.900000000000006,0)" xlink:href="#aB"/><use transform="matrix(0.05,0,0,0.05,68.9,0)" xlink:href="#ae"/><use transform="matrix(0.05,0,0,0.05,78.9,0)" xlink:href="#al"/><use transform="matrix(0.05,0,0,0.05,87.9,0)" xlink:href="#al"/><use transform="matrix(0.05,0,0,0.05,96.9,0)" xlink:href="#aC"/><use transform="matrix(0.05,0,0,0.05,109.85000000000001,0)" xlink:href="#ai"/><use transform="matrix(0.05,0,0,0.05,119.85000000000001,0)" xlink:href="#aj"/><use transform="matrix(0.05,0,0,0.05,125.80000000000001,0)" xlink:href="#ar"/></g><path d="M24 0v-261h32V0H24" id="aD"/><g id="n"><use transform="matrix(0.05,0,0,0.05,0,0)" xlink:href="#ae"/><use transform="matrix(0.05,0,0,0.05,10,0)" xlink:href="#ar"/><use transform="matrix(0.05,0,0,0.05,20,0)" xlink:href="#at"/><use transform="matrix(0.05,0,0,0.05,34.95,0)" xlink:href="#ak"/><use transform="matrix(0.05,0,0,0.05,38.900000000000006,0)" xlink:href="#as"/><use transform="matrix(0.05,0,0,0.05,48.900000000000006,0)" xlink:href="#aq"/><use transform="matrix(0.05,0,0,0.05,58.900000000000006,0)" xlink:href="#ag"/><use transform="matrix(0.05,0,0,0.05,68.9,0)" xlink:href="#at"/><use transform="matrix(0.05,0,0,0.05,83.85000000000001,0)" xlink:href="#ae"/><use transform="matrix(0.05,0,0,0.05,93.85000000000001,0)" xlink:href="#ak"/><use transform="matrix(0.05,0,0,0.05,97.80000000000001,0)" xlink:href="#aD"/></g><g id="o"><use transform="matrix(0.05,0,0,0.05,0,0)" xlink:href="#ao"/><use transform="matrix(0.05,0,0,0.05,9,0)" xlink:href="#aj"/><use transform="matrix(0.05,0,0,0.05,14.949999999999998,0)" xlink:href="#ag"/><use transform="matrix(0.05,0,0,0.05,24.95,0)" xlink:href="#ae"/><use transform="matrix(0.05,0,0,0.05,34.95,0)" xlink:href="#af"/><use transform="matrix(0.05,0,0,0.05,39.95,0)" xlink:href="#ag"/><use transform="matrix(0.05,0,0,0.05,49.95,0)" xlink:href="#ar"/><use transform="matrix(0.05,0,0,0.05,59.95,0)" xlink:href="#aq"/><use transform="matrix(0.05,0,0,0.05,69.95,0)" xlink:href="#ae"/><use transform="matrix(0.05,0,0,0.05,79.95,0)" xlink:href="#af"/></g><path d="M185-189c-5-48-123-54-124 2 14 75 158 14 163 119 3 78-121 87-175 55-17-10-28-26-33-46l33-7c5 56 141 63 141-1 0-78-155-14-162-118-5-82 145-84 179-34 5 7 8 16 11 25" id="aE"/><g id="p"><use transform="matrix(0.05,0,0,0.05,0,0)" xlink:href="#aE"/><use transform="matrix(0.05,0,0,0.05,12,0)" xlink:href="#ag"/><use transform="matrix(0.05,0,0,0.05,22,0)" xlink:href="#aD"/><use transform="matrix(0.05,0,0,0.05,25.950000000000003,0)" xlink:href="#aD"/><use transform="matrix(0.05,0,0,0.05,29.899999999999995,0)" xlink:href="#ag"/><use transform="matrix(0.05,0,0,0.05,39.9,0)" xlink:href="#aj"/></g><g id="q"><use transform="matrix(0.05,0,0,0.05,0,0)" xlink:href="#al"/><use transform="matrix(0.05,0,0,0.05,9,0)" xlink:href="#ag"/><use transform="matrix(0.05,0,0,0.05,19,0)" xlink:href="#aD"/><use transform="matrix(0.05,0,0,0.05,22.95,0)" xlink:href="#aD"/><use transform="matrix(0.05,0,0,0.05,26.899999999999995,0)" xlink:href="#ag"/><use transform="matrix(0.05,0,0,0.05,36.9,0)" xlink:href="#aj"/><use transform="matrix(0.05,0,0,0.05,42.85,0)" xlink:href="#aq"/><use transform="matrix(0.05,0,0,0.05,52.85,0)" xlink:href="#ak"/><use transform="matrix(0.05,0,0,0.05,56.800000000000004,0)" xlink:href="#ar"/><path d="M-.9 1.25h68.6v1.32H-.9z"/></g><g id="r"><use transform="matrix(0.05,0,0,0.05,0,0)" xlink:href="#am"/><use transform="matrix(0.05,0,0,0.05,12,0)" xlink:href="#an"/></g><path d="M-.9 1.25h6.8v1.32H-.9z" id="s"/><path d="M106-169C34-169 62-67 57 0H25v-261h32l-1 103c12-21 28-36 61-36 89 0 53 116 60 194h-32v-121c2-32-8-49-39-48" id="aF"/><path d="M115-194c53 0 69 39 70 98 0 66-23 100-70 100C84 3 66-7 56-30L54 0H23l1-261h32v101c10-23 28-34 59-34zm-8 174c40 0 45-34 45-75 0-40-5-75-45-74-42 0-51 32-51 76 0 43 10 73 51 73" id="aG"/><g id="t"><use transform="matrix(0.05,0,0,0.05,0,0)" xlink:href="#aC"/><use transform="matrix(0.05,0,0,0.05,12.950000000000001,0)" xlink:href="#aF"/><use transform="matrix(0.05,0,0,0.05,22.950000000000003,0)" xlink:href="#ae"/><use transform="matrix(0.05,0,0,0.05,32.95,0)" xlink:href="#af"/><use transform="matrix(0.05,0,0,0.05,37.95,0)" xlink:href="#al"/><use transform="matrix(0.05,0,0,0.05,46.95,0)" xlink:href="#ae"/><use transform="matrix(0.05,0,0,0.05,56.95,0)" xlink:href="#aB"/><use transform="matrix(0.05,0,0,0.05,66.95,0)" xlink:href="#aB"/><use transform="matrix(0.05,0,0,0.05,76.95,0)" xlink:href="#aq"/><use transform="matrix(0.05,0,0,0.05,86.95,0)" xlink:href="#as"/><use transform="matrix(0.05,0,0,0.05,96.95,0)" xlink:href="#aA"/><use transform="matrix(0.05,0,0,0.05,106.95,0)" xlink:href="#at"/><use transform="matrix(0.05,0,0,0.05,121.9,0)" xlink:href="#aG"/><use transform="matrix(0.05,0,0,0.05,131.9,0)" xlink:href="#ag"/><use transform="matrix(0.05,0,0,0.05,141.9,0)" xlink:href="#aj"/><path d="M-.9 1.25h149.65v1.32H-.9z"/></g><g id="u"><use transform="matrix(0.05,0,0,0.05,0,0)" xlink:href="#al"/><use transform="matrix(0.05,0,0,0.05,9,0)" xlink:href="#ag"/><use transform="matrix(0.05,0,0,0.05,19,0)" xlink:href="#aD"/><use transform="matrix(0.05,0,0,0.05,22.95,0)" xlink:href="#aD"/><use transform="matrix(0.05,0,0,0.05,26.899999999999995,0)" xlink:href="#ag"/><use transform="matrix(0.05,0,0,0.05,36.9,0)" xlink:href="#aj"/><use transform="matrix(0.05,0,0,0.05,42.85,0)" xlink:href="#aq"/><use transform="matrix(0.05,0,0,0.05,52.85,0)" xlink:href="#as"/><use transform="matrix(0.05,0,0,0.05,62.85,0)" xlink:href="#ae"/><use transform="matrix(0.05,0,0,0.05,72.85,0)" xlink:href="#at"/><use transform="matrix(0.05,0,0,0.05,87.8,0)" xlink:href="#ag"/></g><g id="v"><use transform="matrix(0.05,0,0,0.05,0,0)" xlink:href="#al"/><use transform="matrix(0.05,0,0,0.05,9,0)" xlink:href="#ag"/><use transform="matrix(0.05,0,0,0.05,19,0)" xlink:href="#aD"/><use transform="matrix(0.05,0,0,0.05,22.95,0)" xlink:href="#aD"/><use transform="matrix(0.05,0,0,0.05,26.899999999999995,0)" xlink:href="#ag"/><use transform="matrix(0.05,0,0,0.05,36.9,0)" xlink:href="#aj"/></g><g id="w"><use transform="matrix(0.05,0,0,0.05,0,0)" xlink:href="#am"/><use transform="matrix(0.05,0,0,0.05,12,0)" xlink:href="#ae"/><use transform="matrix(0.05,0,0,0.05,22,0)" xlink:href="#al"/><use transform="matrix(0.05,0,0,0.05,31,0)" xlink:href="#al"/><use transform="matrix(0.05,0,0,0.05,40,0)" xlink:href="#aC"/><use transform="matrix(0.05,0,0,0.05,52.95,0)" xlink:href="#ai"/><use transform="matrix(0.05,0,0,0.05,62.95,0)" xlink:href="#aj"/><use transform="matrix(0.05,0,0,0.05,68.9,0)" xlink:href="#ar"/></g><g id="x"><use transform="matrix(0.05,0,0,0.05,0,0)" xlink:href="#aE"/><use transform="matrix(0.05,0,0,0.05,12,0)" xlink:href="#ag"/><use transform="matrix(0.05,0,0,0.05,22,0)" xlink:href="#aD"/><use transform="matrix(0.05,0,0,0.05,25.950000000000003,0)" xlink:href="#aD"/><use transform="matrix(0.05,0,0,0.05,29.899999999999995,0)" xlink:href="#ag"/><use transform="matrix(0.05,0,0,0.05,39.9,0)" xlink:href="#aj"/><use transform="matrix(0.05,0,0,0.05,45.85,0)" xlink:href="#aq"/><use transform="matrix(0.05,0,0,0.05,55.85,0)" xlink:href="#ag"/><use transform="matrix(0.05,0,0,0.05,65.85,0)" xlink:href="#at"/><use transform="matrix(0.05,0,0,0.05,80.8,0)" xlink:href="#ae"/><use transform="matrix(0.05,0,0,0.05,90.8,0)" xlink:href="#ak"/><use transform="matrix(0.05,0,0,0.05,94.75,0)" xlink:href="#aD"/></g><g id="y"><use transform="matrix(0.05,0,0,0.05,0,0)" xlink:href="#al"/><use transform="matrix(0.05,0,0,0.05,9,0)" xlink:href="#af"/><use transform="matrix(0.05,0,0,0.05,14,0)" xlink:href="#ai"/><use transform="matrix(0.05,0,0,0.05,24,0)" xlink:href="#aj"/><use transform="matrix(0.05,0,0,0.05,29.950000000000003,0)" xlink:href="#ag"/><use transform="matrix(0.05,0,0,0.05,39.95,0)" xlink:href="#aq"/><use transform="matrix(0.05,0,0,0.05,49.95,0)" xlink:href="#as"/><use transform="matrix(0.05,0,0,0.05,59.95,0)" xlink:href="#ae"/><use transform="matrix(0.05,0,0,0.05,69.95,0)" xlink:href="#at"/><use transform="matrix(0.05,0,0,0.05,84.9,0)" xlink:href="#ag"/></g><g id="z"><use transform="matrix(0.05,0,0,0.05,0,0)" xlink:href="#ao"/><use transform="matrix(0.05,0,0,0.05,9,0)" xlink:href="#aj"/><use transform="matrix(0.05,0,0,0.05,14.949999999999998,0)" xlink:href="#ag"/><use transform="matrix(0.05,0,0,0.05,24.95,0)" xlink:href="#ae"/><use transform="matrix(0.05,0,0,0.05,34.95,0)" xlink:href="#af"/><use transform="matrix(0.05,0,0,0.05,39.95,0)" xlink:href="#ag"/><use transform="matrix(0.05,0,0,0.05,49.95,0)" xlink:href="#ar"/><use transform="matrix(0.05,0,0,0.05,59.95,0)" xlink:href="#aq"/><use transform="matrix(0.05,0,0,0.05,69.95,0)" xlink:href="#ae"/><use transform="matrix(0.05,0,0,0.05,79.95,0)" xlink:href="#af"/></g><g id="A"><use transform="matrix(0.05,0,0,0.05,0,0)" xlink:href="#am"/><use transform="matrix(0.05,0,0,0.05,12,0)" xlink:href="#aj"/><use transform="matrix(0.05,0,0,0.05,17.95,0)" xlink:href="#ai"/><use transform="matrix(0.05,0,0,0.05,27.950000000000003,0)" xlink:href="#ar"/><use transform="matrix(0.05,0,0,0.05,37.95,0)" xlink:href="#aA"/><use transform="matrix(0.05,0,0,0.05,47.95,0)" xlink:href="#ao"/><use transform="matrix(0.05,0,0,0.05,56.95,0)" xlink:href="#af"/><use transform="matrix(0.05,0,0,0.05,61.95,0)" xlink:href="#al"/></g><g id="B"><use transform="matrix(0.05,0,0,0.05,0,0)" xlink:href="#aB"/><use transform="matrix(0.05,0,0,0.05,10,0)" xlink:href="#aj"/><use transform="matrix(0.05,0,0,0.05,15.949999999999998,0)" xlink:href="#ai"/><use transform="matrix(0.05,0,0,0.05,25.950000000000003,0)" xlink:href="#ar"/><use transform="matrix(0.05,0,0,0.05,35.95,0)" xlink:href="#aq"/><use transform="matrix(0.05,0,0,0.05,45.95,0)" xlink:href="#ak"/><use transform="matrix(0.05,0,0,0.05,49.900000000000006,0)" xlink:href="#ar"/><path d="M-.9 1.25h61.7v1.32H-.9z"/></g><g id="C"><use transform="matrix(0.05,0,0,0.05,0,0)" xlink:href="#al"/><use transform="matrix(0.05,0,0,0.05,9,0)" xlink:href="#ag"/><use transform="matrix(0.05,0,0,0.05,19,0)" xlink:href="#aD"/><use transform="matrix(0.05,0,0,0.05,22.95,0)" xlink:href="#aD"/><use transform="matrix(0.05,0,0,0.05,26.899999999999995,0)" xlink:href="#ag"/><use transform="matrix(0.05,0,0,0.05,36.9,0)" xlink:href="#aj"/><use transform="matrix(0.05,0,0,0.05,42.85,0)" xlink:href="#aq"/><use transform="matrix(0.05,0,0,0.05,52.85,0)" xlink:href="#ak"/><use transform="matrix(0.05,0,0,0.05,56.800000000000004,0)" xlink:href="#ar"/></g><g id="D"><use transform="matrix(0.05,0,0,0.05,0,0)" xlink:href="#ao"/><use transform="matrix(0.05,0,0,0.05,9,0)" xlink:href="#ae"/><use transform="matrix(0.05,0,0,0.05,19,0)" xlink:href="#af"/><use transform="matrix(0.05,0,0,0.05,24,0)" xlink:href="#ag"/><use transform="matrix(0.05,0,0,0.05,34,0)" xlink:href="#ah"/><use transform="matrix(0.05,0,0,0.05,44,0)" xlink:href="#ai"/><use transform="matrix(0.05,0,0,0.05,54,0)" xlink:href="#aj"/><use transform="matrix(0.05,0,0,0.05,59.95,0)" xlink:href="#ap"/><use transform="matrix(0.05,0,0,0.05,68.95,0)" xlink:href="#aq"/><use transform="matrix(0.05,0,0,0.05,78.95,0)" xlink:href="#ak"/><use transform="matrix(0.05,0,0,0.05,82.9,0)" xlink:href="#ar"/></g><g id="E"><use transform="matrix(0.05,0,0,0.05,0,0)" xlink:href="#au"/><use transform="matrix(0.05,0,0,0.05,12.950000000000001,0)" xlink:href="#ax"/><use transform="matrix(0.05,0,0,0.05,25.900000000000002,0)" xlink:href="#ay"/><use transform="matrix(0.05,0,0,0.05,35.900000000000006,0)" xlink:href="#ay"/></g><g id="G"><use transform="matrix(0.05,0,0,0.05,0,0)" xlink:href="#aB"/><use transform="matrix(0.05,0,0,0.05,10,0)" xlink:href="#aj"/><use transform="matrix(0.05,0,0,0.05,15.949999999999998,0)" xlink:href="#ai"/><use transform="matrix(0.05,0,0,0.05,25.950000000000003,0)" xlink:href="#ar"/><use transform="matrix(0.05,0,0,0.05,35.95,0)" xlink:href="#aA"/><use transform="matrix(0.05,0,0,0.05,45.95,0)" xlink:href="#ao"/><use transform="matrix(0.05,0,0,0.05,54.95,0)" xlink:href="#af"/><use transform="matrix(0.05,0,0,0.05,59.95,0)" xlink:href="#aq"/><use transform="matrix(0.05,0,0,0.05,69.95,0)" xlink:href="#as"/><use transform="matrix(0.05,0,0,0.05,79.95,0)" xlink:href="#ae"/><use transform="matrix(0.05,0,0,0.05,89.95,0)" xlink:href="#at"/><use transform="matrix(0.05,0,0,0.05,104.9,0)" xlink:href="#ag"/></g><g id="H"><use transform="matrix(0.05,0,0,0.05,0,0)" xlink:href="#ar"/><use transform="matrix(0.05,0,0,0.05,10,0)" xlink:href="#ag"/><use transform="matrix(0.05,0,0,0.05,20,0)" xlink:href="#al"/><use transform="matrix(0.05,0,0,0.05,29,0)" xlink:href="#ao"/><use transform="matrix(0.05,0,0,0.05,38,0)" xlink:href="#aj"/><use transform="matrix(0.05,0,0,0.05,43.95,0)" xlink:href="#ak"/><use transform="matrix(0.05,0,0,0.05,47.900000000000006,0)" xlink:href="#aB"/><use transform="matrix(0.05,0,0,0.05,57.900000000000006,0)" xlink:href="#af"/><use transform="matrix(0.05,0,0,0.05,62.900000000000006,0)" xlink:href="#ak"/><use transform="matrix(0.05,0,0,0.05,66.85000000000001,0)" xlink:href="#ai"/><use transform="matrix(0.05,0,0,0.05,76.85000000000001,0)" xlink:href="#as"/></g><g id="I"><use transform="matrix(0.05,0,0,0.05,0,0)" xlink:href="#aB"/><use transform="matrix(0.05,0,0,0.05,10,0)" xlink:href="#aj"/><use transform="matrix(0.05,0,0,0.05,15.949999999999998,0)" xlink:href="#ak"/><use transform="matrix(0.05,0,0,0.05,19.9,0)" xlink:href="#ao"/><use transform="matrix(0.05,0,0,0.05,28.899999999999995,0)" xlink:href="#ag"/></g><path d="M27 0v-27h64v-190l-56 39v-29l58-41h29v221h61V0H27" id="aH"/><g id="J"><use transform="matrix(0.04999999999999997,0,0,0.04999999999999997,0,0)" xlink:href="#ak"/><use transform="matrix(0.04999999999999997,0,0,0.04999999999999997,3.9499999999999975,0)" xlink:href="#at"/><use transform="matrix(0.04999999999999997,0,0,0.04999999999999997,18.899999999999988,0)" xlink:href="#ae"/><use transform="matrix(0.04999999999999997,0,0,0.04999999999999997,28.89999999999998,0)" xlink:href="#ah"/><use transform="matrix(0.04999999999999997,0,0,0.04999999999999997,38.89999999999998,0)" xlink:href="#ag"/><use transform="matrix(0.04999999999999997,0,0,0.04999999999999997,48.89999999999997,0)" xlink:href="#aH"/></g><g id="K"><use transform="matrix(0.04999999999999997,0,0,0.04999999999999997,0,0)" xlink:href="#au"/><use transform="matrix(0.04999999999999997,0,0,0.04999999999999997,12.949999999999992,0)" xlink:href="#av"/><use transform="matrix(0.04999999999999997,0,0,0.04999999999999997,26.94999999999998,0)" xlink:href="#aw"/></g><g id="L"><use transform="matrix(0.04999999999999997,0,0,0.04999999999999997,0,0)" xlink:href="#au"/><use transform="matrix(0.04999999999999997,0,0,0.04999999999999997,12.949999999999992,0)" xlink:href="#ax"/><use transform="matrix(0.04999999999999997,0,0,0.04999999999999997,25.899999999999984,0)" xlink:href="#ay"/><use transform="matrix(0.04999999999999997,0,0,0.04999999999999997,35.89999999999998,0)" xlink:href="#ay"/></g><path d="M101-251c82-7 93 87 43 132L82-64C71-53 59-42 53-27h129V0H18c2-99 128-94 128-182 0-28-16-43-45-43s-46 15-49 41l-32-3c6-41 34-60 81-64" id="aI"/><g id="N"><use transform="matrix(0.05,0,0,0.05,0,0)" xlink:href="#ak"/><use transform="matrix(0.05,0,0,0.05,3.95,0)" xlink:href="#at"/><use transform="matrix(0.05,0,0,0.05,18.900000000000002,0)" xlink:href="#ae"/><use transform="matrix(0.05,0,0,0.05,28.900000000000002,0)" xlink:href="#ah"/><use transform="matrix(0.05,0,0,0.05,38.900000000000006,0)" xlink:href="#ag"/><use transform="matrix(0.05,0,0,0.05,48.900000000000006,0)" xlink:href="#aI"/></g><path d="M126-127c33 6 58 20 58 59 0 88-139 92-164 29-3-8-5-16-6-25l32-3c6 27 21 44 54 44 32 0 52-15 52-46 0-38-36-46-79-43v-28c39 1 72-4 72-42 0-27-17-43-46-43-28 0-47 15-49 41l-32-3c6-42 35-63 81-64 48-1 79 21 79 65 0 36-21 52-52 59" id="aJ"/><g id="P"><use transform="matrix(0.05,0,0,0.05,0,0)" xlink:href="#ak"/><use transform="matrix(0.05,0,0,0.05,3.95,0)" xlink:href="#at"/><use transform="matrix(0.05,0,0,0.05,18.900000000000002,0)" xlink:href="#ae"/><use transform="matrix(0.05,0,0,0.05,28.900000000000002,0)" xlink:href="#ah"/><use transform="matrix(0.05,0,0,0.05,38.900000000000006,0)" xlink:href="#ag"/><use transform="matrix(0.05,0,0,0.05,48.900000000000006,0)" xlink:href="#aJ"/></g><path d="M155-56V0h-30v-56H8v-25l114-167h33v167h35v25h-35zm-30-156c-27 46-58 90-88 131h88v-131" id="aK"/><g id="Q"><use transform="matrix(0.05,0,0,0.05,0,0)" xlink:href="#ak"/><use transform="matrix(0.05,0,0,0.05,3.95,0)" xlink:href="#at"/><use transform="matrix(0.05,0,0,0.05,18.900000000000002,0)" xlink:href="#ae"/><use transform="matrix(0.05,0,0,0.05,28.900000000000002,0)" xlink:href="#ah"/><use transform="matrix(0.05,0,0,0.05,38.900000000000006,0)" xlink:href="#ag"/><use transform="matrix(0.05,0,0,0.05,48.900000000000006,0)" xlink:href="#aK"/></g><g id="R"><use transform="matrix(0.05,0,0,0.05,0,0)" xlink:href="#au"/><use transform="matrix(0.05,0,0,0.05,12.950000000000001,0)" xlink:href="#ax"/><use transform="matrix(0.05,0,0,0.05,25.900000000000002,0)" xlink:href="#ay"/><use transform="matrix(0.05,0,0,0.05,35.900000000000006,0)" xlink:href="#ay"/></g><g id="S"><use transform="matrix(0.05,0,0,0.05,0,0)" xlink:href="#ao"/><use transform="matrix(0.05,0,0,0.05,9,0)" xlink:href="#ai"/><use transform="matrix(0.05,0,0,0.05,19,0)" xlink:href="#aD"/><use transform="matrix(0.05,0,0,0.05,22.95,0)" xlink:href="#ai"/><use transform="matrix(0.05,0,0,0.05,32.95,0)" xlink:href="#aj"/><use transform="matrix(0.05,0,0,0.05,38.900000000000006,0)" xlink:href="#aH"/></g><g id="T"><use transform="matrix(0.05,0,0,0.05,0,0)" xlink:href="#ao"/><use transform="matrix(0.05,0,0,0.05,9,0)" xlink:href="#ai"/><use transform="matrix(0.05,0,0,0.05,19,0)" xlink:href="#aD"/><use transform="matrix(0.05,0,0,0.05,22.95,0)" xlink:href="#ai"/><use transform="matrix(0.05,0,0,0.05,32.95,0)" xlink:href="#aj"/><use transform="matrix(0.05,0,0,0.05,38.900000000000006,0)" xlink:href="#aI"/></g><g id="U"><use transform="matrix(0.05,0,0,0.05,0,0)" xlink:href="#ao"/><use transform="matrix(0.05,0,0,0.05,9,0)" xlink:href="#ai"/><use transform="matrix(0.05,0,0,0.05,19,0)" xlink:href="#aD"/><use transform="matrix(0.05,0,0,0.05,22.95,0)" xlink:href="#ai"/><use transform="matrix(0.05,0,0,0.05,32.95,0)" xlink:href="#aj"/><use transform="matrix(0.05,0,0,0.05,38.900000000000006,0)" xlink:href="#aJ"/></g><path d="M9 0v-24l116-142H16v-24h144v24L44-24h123V0H9" id="aL"/><g id="W"><use transform="matrix(0.05,0,0,0.05,0,0)" xlink:href="#al"/><use transform="matrix(0.05,0,0,0.05,9,0)" xlink:href="#ak"/><use transform="matrix(0.05,0,0,0.05,12.949999999999998,0)" xlink:href="#aL"/><use transform="matrix(0.05,0,0,0.05,21.95,0)" xlink:href="#ag"/><use transform="matrix(0.05,0,0,0.05,31.950000000000003,0)" xlink:href="#aH"/></g><g id="X"><use transform="matrix(0.05,0,0,0.05,0,0)" xlink:href="#al"/><use transform="matrix(0.05,0,0,0.05,9,0)" xlink:href="#ak"/><use transform="matrix(0.05,0,0,0.05,12.949999999999998,0)" xlink:href="#aL"/><use transform="matrix(0.05,0,0,0.05,21.95,0)" xlink:href="#ag"/><use transform="matrix(0.05,0,0,0.05,31.950000000000003,0)" xlink:href="#aI"/></g><g id="Y"><use transform="matrix(0.05,0,0,0.05,0,0)" xlink:href="#al"/><use transform="matrix(0.05,0,0,0.05,9,0)" xlink:href="#ak"/><use transform="matrix(0.05,0,0,0.05,12.949999999999998,0)" xlink:href="#aL"/><use transform="matrix(0.05,0,0,0.05,21.95,0)" xlink:href="#ag"/><use transform="matrix(0.05,0,0,0.05,31.950000000000003,0)" xlink:href="#aJ"/></g><g id="Z"><use transform="matrix(0.05,0,0,0.05,0,0)" xlink:href="#af"/><use transform="matrix(0.05,0,0,0.05,5,0)" xlink:href="#ap"/><use transform="matrix(0.05,0,0,0.05,14,0)" xlink:href="#aB"/><use transform="matrix(0.05,0,0,0.05,24,0)" xlink:href="#ag"/></g><g id="ab"><use transform="matrix(0.05,0,0,0.05,0,0)" xlink:href="#aG"/><use transform="matrix(0.05,0,0,0.05,10,0)" xlink:href="#aj"/><use transform="matrix(0.05,0,0,0.05,15.949999999999998,0)" xlink:href="#ae"/><use transform="matrix(0.05,0,0,0.05,25.950000000000003,0)" xlink:href="#as"/><use transform="matrix(0.05,0,0,0.05,35.95,0)" xlink:href="#ar"/></g><g id="ac"><use transform="matrix(0.05,0,0,0.05,0,0)" xlink:href="#ao"/><use transform="matrix(0.05,0,0,0.05,9,0)" xlink:href="#ai"/><use transform="matrix(0.05,0,0,0.05,19,0)" xlink:href="#aA"/><use transform="matrix(0.05,0,0,0.05,29,0)" xlink:href="#as"/><use transform="matrix(0.05,0,0,0.05,39,0)" xlink:href="#af"/><use transform="matrix(0.05,0,0,0.05,44,0)" xlink:href="#ag"/><use transform="matrix(0.05,0,0,0.05,54,0)" xlink:href="#aj"/></g></defs></g></svg>