<svg xmlns="http://www.w3.org/2000/svg" xmlns:xlink="http://www.w3.org/1999/xlink" xmlns:lucid="lucid" width="1656.25" height="1805"><g transform="translate(-437.5 302.5)" lucid:page-tab-id=".Q4MUjXso07N"><path d="M680-272a8 8 0 0 1 8-8h1044a8 8 0 0 1 8 8v1744a8 8 0 0 1-8 8H688a8 8 0 0 1-8-8z" stroke="#000" stroke-width="5" fill-opacity="0"/><use xlink:href="#a" transform="matrix(1,0,0,1,688,-272) translate(482.12993827160494 17.95555555555555)"/><path d="M519.75 999.75c0 10.9-8.84 19.75-19.75 19.75-10.9 0-19.75-8.84-19.75-19.75 0-10.9 8.84-19.75 19.75-19.75 10.9 0 19.75 8.84 19.75 19.75z" stroke="#333" stroke-width="5" fill="#fff"/><path d="M500 1019.5v47.3a27.6 27.6 0 0 0 4.28 14.76L540 1138m-40-63.2l-40 63.2m0-98.75h80" stroke="#333" stroke-width="5" fill="none"/><path d="M460 988a8 8 0 0 1 8-8h64a8 8 0 0 1 8 8v164a8 8 0 0 1-8 8h-64a8 8 0 0 1-8-8z" fill="none"/><use xlink:href="#b" transform="matrix(1,0,0,1,380,1138) translate(89.45061728395062 17.955555555555552)"/><path d="M519.75 519.75c0 10.9-8.84 19.75-19.75 19.75-10.9 0-19.75-8.84-19.75-19.75 0-10.9 8.84-19.75 19.75-19.75 10.9 0 19.75 8.84 19.75 19.75z" stroke="#333" stroke-width="5" fill="#fff"/><path d="M500 539.5v49.3a20.7 20.7 0 0 0 3.2 11.07L540 658m-40-63.2L460 658m0-98.75h80" stroke="#333" stroke-width="5" fill="none"/><path d="M460 506a6 6 0 0 1 6-6h68a6 6 0 0 1 6 6v168a6 6 0 0 1-6 6h-68a6 6 0 0 1-6-6z" fill="none"/><use xlink:href="#c" transform="matrix(1,0,0,1,380,658) translate(85.17993827160495 17.955555555555552)"/><path d="M1020 640c0 33.14-35.82 60-80 60s-80-26.86-80-60 35.82-60 80-60 80 26.86 80 60z" stroke="#333" stroke-width="5" fill="#fff"/><use xlink:href="#d" transform="matrix(1,0,0,1,884,604) translate(38.575 28.799999999999997)"/><use xlink:href="#e" transform="matrix(1,0,0,1,884,604) translate(17.624999999999993 50.4)"/><path d="M1020 1100c0 33.14-35.82 60-80 60s-80-26.86-80-60 35.82-60 80-60 80 26.86 80 60z" stroke="#333" stroke-width="5" fill="#fff"/><use xlink:href="#f" transform="matrix(1,0,0,1,884,1064) translate(29.049999999999997 28.799999999999997)"/><use xlink:href="#e" transform="matrix(1,0,0,1,884,1064) translate(17.624999999999993 50.4)"/><path d="M1020 1240c0 33.14-35.82 60-80 60s-80-26.86-80-60 35.82-60 80-60 80 26.86 80 60z" stroke="#333" stroke-width="5" fill="#fff"/><use xlink:href="#g" transform="matrix(1,0,0,1,884,1204) translate(20.125 28.799999999999997)"/><use xlink:href="#h" transform="matrix(1,0,0,1,884,1204) translate(59.025000000000006 28.799999999999997)"/><use xlink:href="#i" transform="matrix(1,0,0,1,884,1204) translate(17.624999999999993 50.4)"/><path d="M1020 500c0 33.14-35.82 60-80 60s-80-26.86-80-60 35.82-60 80-60 80 26.86 80 60z" stroke="#333" stroke-width="5" fill="#fff"/><use xlink:href="#j" transform="matrix(1,0,0,1,884,464) translate(26.025 28.799999999999997)"/><use xlink:href="#e" transform="matrix(1,0,0,1,884,464) translate(17.624999999999993 50.4)"/><path d="M1020 1380c0 33.14-35.82 60-80 60s-80-26.86-80-60 35.82-60 80-60 80 26.86 80 60z" stroke="#333" stroke-width="5" fill="#fff"/><use xlink:href="#g" transform="matrix(1,0,0,1,884,1344) translate(2.1499999999999915 28.799999999999997)"/><use xlink:href="#k" transform="matrix(1,0,0,1,884,1344) translate(41.05 28.799999999999997)"/><use xlink:href="#l" transform="matrix(1,0,0,1,884,1344) translate(39.575 50.4)"/><path d="M1360 820c0 33.14-35.82 60-80 60s-80-26.86-80-60 35.82-60 80-60 80 26.86 80 60z" stroke="#333" stroke-width="5" fill="#fff"/><use xlink:href="#m" transform="matrix(1,0,0,1,1224,784) translate(31.599999999999998 39.6)"/><path d="M1360 580c0 33.14-35.82 60-80 60s-80-26.86-80-60 35.82-60 80-60 80 26.86 80 60z" stroke="#333" stroke-width="5" fill="#fff"/><use xlink:href="#n" transform="matrix(1,0,0,1,1224,544) translate(25.649999999999995 39.6)"/><path d="M1580 180c0 33.14-35.82 60-80 60s-80-26.86-80-60 35.82-60 80-60 80 26.86 80 60z" stroke="#333" stroke-width="5" fill="#fff"/><use xlink:href="#o" transform="matrix(1,0,0,1,1444,144) translate(22.625 28.799999999999997)"/><use xlink:href="#p" transform="matrix(1,0,0,1,1444,144) translate(27.5 50.4)"/><path d="M1580 340c0 33.14-35.82 60-80 60s-80-26.86-80-60 35.82-60 80-60 80 26.86 80 60z" stroke="#333" stroke-width="5" fill="#fff"/><use xlink:href="#q" transform="matrix(1,0,0,1,1444,304) translate(35.675 28.799999999999997)"/><use xlink:href="#e" transform="matrix(1,0,0,1,1444,304) translate(17.624999999999993 50.4)"/><path d="M2039.75 519.75c0 10.9-8.84 19.75-19.75 19.75-10.9 0-19.75-8.84-19.75-19.75 0-10.9 8.84-19.75 19.75-19.75 10.9 0 19.75 8.84 19.75 19.75z" stroke="#333" stroke-width="5" fill="#fff"/><path d="M2020 539.5v47.3a27.6 27.6 0 0 0 4.28 14.76L2060 658m-40-63.2l-40 63.2m0-98.75h80" stroke="#333" stroke-width="5" fill="none"/><path d="M1980 508a8 8 0 0 1 8-8h64a8 8 0 0 1 8 8v164a8 8 0 0 1-8 8h-64a8 8 0 0 1-8-8z" fill="none"/><use xlink:href="#r" transform="matrix(1,0,0,1,1900,658) translate(67.75432098765432 17.955555555555552)"/><path d="M1020 220c0 33.14-35.82 60-80 60s-80-26.86-80-60 35.82-60 80-60 80 26.86 80 60z" stroke="#333" stroke-width="5" fill="#fff"/><use xlink:href="#s" transform="matrix(1,0,0,1,884,184) translate(27.025 28.799999999999997)"/><use xlink:href="#p" transform="matrix(1,0,0,1,884,184) translate(27.5 50.4)"/><path d="M1020-200c0 33.14-35.82 60-80 60s-80-26.86-80-60 35.82-60 80-60 80 26.86 80 60z" stroke="#333" stroke-width="5" fill="#fff"/><use xlink:href="#t" transform="matrix(1,0,0,1,884,-236) translate(7.575000000000003 39.6)"/><use xlink:href="#p" transform="matrix(1,0,0,1,884,-236) translate(47.425000000000004 39.6)"/><path d="M1020-60c0 33.14-35.82 60-80 60s-80-26.86-80-60 35.82-60 80-60 80 26.86 80 60z" stroke="#333" stroke-width="5" fill="#fff"/><use xlink:href="#f" transform="matrix(1,0,0,1,884,-96) translate(29.049999999999997 28.799999999999997)"/><use xlink:href="#p" transform="matrix(1,0,0,1,884,-96) translate(27.5 50.4)"/><path d="M1020 80c0 33.14-35.82 60-80 60s-80-26.86-80-60 35.82-60 80-60 80 26.86 80 60z" stroke="#333" stroke-width="5" fill="#fff"/><use xlink:href="#g" transform="matrix(1,0,0,1,884,44) translate(5.674999999999997 28.799999999999997)"/><use xlink:href="#u" transform="matrix(1,0,0,1,884,44) translate(44.575 28.799999999999997)"/><use xlink:href="#v" transform="matrix(1,0,0,1,884,44) translate(82.425 28.799999999999997)"/><use xlink:href="#w" transform="matrix(1,0,0,1,884,44) translate(27.5 50.4)"/><path d="M1020 360c0 33.14-35.82 60-80 60s-80-26.86-80-60 35.82-60 80-60 80 26.86 80 60z" stroke="#333" stroke-width="5" fill="#fff"/><use xlink:href="#x" transform="matrix(1,0,0,1,884,324) translate(22.049999999999997 28.799999999999997)"/><use xlink:href="#y" transform="matrix(1,0,0,1,884,324) translate(11.074999999999996 50.4)"/><path d="M1978.2 557.02l-393.9-375.3" stroke="#333" stroke-width="5" fill="none"/><path d="M1981.5 556.75h-1.5v5h1.3l-.84.86-4.02-3.83 3.4-3.58zM1586.06 179.98l-3.4 3.58-.28-.26.03-.28.1-3v-.46l-.12-2.97v-.14z" stroke="#333" stroke-width=".05" fill="#333"/><path d="M1584.33 347.16l393.47 210.4" stroke="#333" stroke-width="5" fill="none"/><path d="M1585.56 345l-2.34 4.37-1.5-.8.4-2.56.26-2.7zM1981.8 561.75l-.32.6-1.12-.6zm-.3-5h-1.5v4.8l-3.43-1.83 2.34-4.36z" stroke="#333" stroke-width=".05" fill="#333"/><path d="M1025 500.15l952.5 58.45" stroke="#333" stroke-width="5" fill="none"/><path d="M1025.2 497.7l-.3 4.93-2.48-.15.08-2.45v-.46l-.08-2.06zM1983.15 556.46l-.02.3H1980v4.47l-2.7-.17.3-4.94z" stroke="#333" stroke-width=".05" fill="#333"/><path d="M856.9-203.66l-315.94 760.1" stroke="#333" stroke-width="5" fill="none"/><path d="M858.35-209l-.48 3-.25 2.7-3.02-1.25 2.14-5.13zM543.27 557.33l-2.14 5.14-1.73-.72h.6v-5h-1.85l.55-1.32z" stroke="#333" stroke-width=".05" fill="#333"/><path d="M856.36-57.78l-315.22 614.3" stroke="#333" stroke-width="5" fill="none"/><path d="M857.62-63.3l-.03.28-.1 3v.46l.1 2.5-3.47-1.8 2.54-4.94zM543.37 557.6l-2.54 4.95-1.56-.8h.73v-5h-1.76l.73-1.4z" stroke="#333" stroke-width=".05" fill="#333"/><path d="M856.12 82.08l-314.74 474.6" stroke="#333" stroke-width="5" fill="none"/><path d="M857.64 76.5l-.05.48-.1 3v.45l.1 2.72-3.58-2.38 3.08-4.64zM543.48 557.98l-3.08 4.64-1.3-.87h.9v-5h-1.64l1-1.5z" stroke="#333" stroke-width=".05" fill="#333"/><path d="M855.8 221.83l-314.1 336.1" stroke="#333" stroke-width="5" fill="none"/><path d="M857.6 216.98l-.1 3v.46l.12 2.97v.1l-.06.06-3.62-3.38 3.73-3.98zM543.56 559.57l-3.8 4.06-2-1.88H540v-5h-.58l.52-.56z" stroke="#333" stroke-width=".05" fill="#333"/><path d="M855.38 361.32l-313.26 195.3" stroke="#333" stroke-width="5" fill="none"/><path d="M857.5 359.97v.46l.1 2.43-.97.6-2.62-4.2 3.6-2.23zM543.5 558.7l-3.5 2.17v-4.12h-2.75l3.62-2.25z" stroke="#333" stroke-width=".05" fill="#333"/><path d="M855.04 500.46L542.46 559.3" stroke="#333" stroke-width="5" fill="none"/><path d="M857.5 499.97v.46l.08 2.07-2.14.4-.92-4.86 3.06-.57zM542.98 561.7l-5.47 1.04-.18-1H540v-4.5l2.06-.4z" stroke="#333" stroke-width=".05" fill="#333"/><path d="M855.08 639.4l-312.66-79.04" stroke="#333" stroke-width="5" fill="none"/><path d="M857.58 637.47l-.08 2.5v.46l.1 2.15-3.2-.8 1.22-4.8zM543.1 557.98l-1.22 4.8-4.07-1.03h2.2v-4.55zm-5.44-1.23l.04-.13.53.13z" stroke="#333" stroke-width=".05" fill="#333"/><path d="M856.24 1097.84L541.26 560.1" stroke="#333" stroke-width="5" fill="none"/><path d="M857.6 1096.98l-.1 3v.45l.12 2.98-.74.44-2.8-4.8 3.5-2.07zM543.43 558.9l-3.43 2.02v-4.17h-3.57l-.08-.14 4.27-2.5z" stroke="#333" stroke-width=".05" fill="#333"/><path d="M856.4 1237.75L531.38 564" stroke="#333" stroke-width="5" fill="none"/><path d="M857.5 1239.97v.46l.1 2.85-1.03.5-2.4-5 3.42-1.67z" stroke="#333" stroke-width=".05" fill="#333"/><path d="M531.4 564.06l-2.42-5M1195 579.92l-652.5-20.1" stroke="#333" stroke-width="5" fill="none"/><path d="M1197.58 577.53l-.08 2.44v.46l.08 2.05-2.72-.1.15-4.93zM542.64 557.36l-.15 4.94-5.58-.17.02-.38H540v-4.48z" stroke="#333" stroke-width=".05" fill="#333"/><path d="M1195.55 813.04L547.7 560.94c.58-1.47-.15-3.15-1.63-3.72-1.5-.58-3.16.15-3.74 1.64" stroke="#333" stroke-width="5" fill="none"/><path d="M1198.28 811.45l-.4 2.54-.24 2.5-3.05-1.18 1.8-4.6zM543.3 556.58l-1.8 4.6-1.5-.57v-3.85h-2.75l.85-2.2z" stroke="#333" stroke-width=".05" fill="#333"/><path d="M541.7 1040.58l314.1 337.6" stroke="#333" stroke-width="5" fill="none"/><path d="M543.56 1038.94l-3.63 3.37-.52-.55h.6v-5h-2.25l2.02-1.88zM857.64 1376.5l-.05.48-.1 3v.45l.12 2.98.04.4-3.72-4 3.63-3.36z" stroke="#333" stroke-width=".05" fill="#333"/><path d="M855.4 1238.66L542.1 1040.1" stroke="#333" stroke-width="5" fill="none"/><path d="M857.6 1237.13l-.1 2.84v.46l.1 2.57-3.6-2.28 2.66-4.18zM543.5 1038.03l-2.66 4.18-.84-.52v-4.93h-2.28l1.07-1.7z" stroke="#333" stroke-width=".05" fill="#333"/><path d="M855.04 1099.53l-65.14-12.57c.73-3.8-1.75-7.47-5.55-8.2-3.8-.73-7.46 1.75-8.2 5.55l-233.7-45.08" stroke="#333" stroke-width="5" fill="none"/><path d="M857.58 1097.5l-.08 2.47v.46l.1 2.1-3.1-.6.95-4.85zM543 1036.8l-.95 4.87-2.05-.4v-4.52h-2.67l.2-1z" stroke="#333" stroke-width=".05" fill="#333"/><path d="M855.94 641.96l-19.3 24.25c-3.03-2.4-7.43-1.9-9.84 1.12-2.4 3.03-1.9 7.43 1.1 9.84L706.63 829.5c-3.02-2.42-7.43-1.92-9.84 1.1-2.4 3.03-1.9 7.43 1.12 9.84l-16.3 20.46c-3-2.4-7.42-1.9-9.83 1.12-2.4 3.02-1.9 7.43 1.12 9.83L541.55 1036.8" stroke="#333" stroke-width="5" fill="none"/><path d="M857.66 636.3l-.07.68-.1 3v.45l.12 2.94-3.65-2.9 3.46-4.36zM543.53 1038.3l-3.46 4.34-1.12-.9H540v-5h-1.57l1.23-1.54z" stroke="#333" stroke-width=".05" fill="#333"/><path d="M1195.9 823.14l-414.74 138-2-3.64-1.17-1.02-1.45-.55-1.72-.02-.44.12-1.55.84-1 1.18-.56 1.44-.03 1.7.74 3-36.6 12.17-2-3.63-1.18-1-1.44-.56-1.7-.03-.46.1-1.53.86-1.03 1.16-.55 1.45-.02 1.72.74 2.98-183.1 60.9-1.55-4.7 178.95-59.53.03-2.3 1.18-3.08 2.16-2.52 2.9-1.58 1.67-.42 3.22.04 3.08 1.17 2.5 2.16.45.8 28.57-9.5.03-2.32 1.17-3.08 2.17-2.5 2.87-1.6 1.7-.4 3.22.03 3.07 1.17 2.5 2.16.44.8 410.85-136.7z" stroke="#333" stroke-width=".05" fill="#333"/><path d="M1197.5 819.97v.46l.1 2.15-1.75.58-1.56-4.7 3.28-1.1z" fill="#333"/><path stroke="#333" stroke-width=".05" fill="#333"/><path d="M537.93 1042.05l-.1-.3h1zm5.28-1.76l-3.2 1.06v-4.6h-1.83l3.48-1.17z" fill="#333"/><path stroke="#333" stroke-width=".05" fill="#333"/><path d="M1196.87 583.46L987.82 729.32l-2.8-2.86-1.25-.64-1.4-.22-1.42.23-1.12.56-1.08 1.04-.64 1.26-.2 1.4.22 1.43 1.7 3.37-234.47 163.6-2.78-2.87-1.26-.64-1.4-.23-1.4.23-1.13.56-1.08 1.05-.65 1.28-.23 1.4.24 1.42 1.7 3.37-27.02 18.85-2.8-2.86-1.25-.64-1.4-.22-1.43.23-1.12.56-1.08 1.05-.64 1.26-.22 1.4.24 1.43 1.7 3.37-158.87 110.85-2.84-4.06L696 926.9l-.13-.23-.47-2.96.46-2.94 1.37-2.7 2.2-2.14 2.5-1.25 2.96-.48 2.94.45 2.7 1.38.4.43 20.06-14-.1-.22-.5-2.96.48-2.95 1.37-2.7 2.2-2.15 2.5-1.25 2.95-.48 2.96.47 2.68 1.37.43.43 227.5-158.74-.12-.23-.48-2.96.47-2.94 1.37-2.7 2.22-2.15 2.5-1.24 2.95-.47 2.95.45 2.68 1.37.43.44 205.6-143.46z" stroke="#333" stroke-width=".05" fill="#333"/><path d="M1197.6 576.98l-.1 3v.45l.1 2.52-.8.55-2.82-4.06 3.62-2.53z" fill="#333"/><path stroke="#333" stroke-width=".05" fill="#333"/><path d="M543.52 1039.3l-4.56 3.2-.53-.75H540v-5h-1.46l2.15-1.5z" fill="#333"/><path stroke="#333" stroke-width=".05" fill="#333"/><path d="M1160 1020c0 33.14-35.82 60-80 60s-80-26.86-80-60 35.82-60 80-60 80 26.86 80 60z" stroke="#333" stroke-width="5" fill="#fff"/><use xlink:href="#z" transform="matrix(1,0,0,1,1024,984) translate(31.525 28.799999999999997)"/><use xlink:href="#A" transform="matrix(1,0,0,1,1024,984) translate(14.074999999999996 50.4)"/><path d="M1560 1020c0 33.14-35.82 60-80 60s-80-26.86-80-60 35.82-60 80-60 80 26.86 80 60z" stroke="#333" stroke-width="5" fill="#fff"/><g><use xlink:href="#B" transform="matrix(1,0,0,1,1424,984) translate(0.125 28.799999999999997)"/><use xlink:href="#C" transform="matrix(1,0,0,1,1424,984) translate(69.025 28.799999999999997)"/><use xlink:href="#D" transform="matrix(1,0,0,1,1424,984) translate(35.025 50.4)"/></g><path d="M1104.9 950.8l-21.7 8.14-1.73-4.64 21.7-8.13zm21.7-8.14l-1.72-4.63 2.56-.96h14.1zm108.52-40.7l-35.98 13.5h-8.46l-.7-1.85 43.4-16.26zm43.4-16.26l-21.7 8.13-1.73-4.63 21.7-8.14z" stroke="#333" stroke-width=".05" fill="#333"/><path d="M1283.68 883.76l-5.2 1.96-1.25-3.3 2.74.08h.98l2.22-.1z" fill="#333"/><path stroke="#333" stroke-width=".05" fill="#333"/><path d="M1082.77 957.6l-2.74-.1h-.98l-2.22.1-.5-1.36 5.2-1.96z" fill="#333"/><path stroke="#333" stroke-width=".05" fill="#333"/><g><use xlink:href="#E" transform="matrix(1,0,0,1,1110.8620439590613,915.4673549413112) translate(0 14.4)"/></g><path d="M1478.53 954.3l-1.74 4.64-21.7-8.14 1.73-4.63zm-43.4-16.27l-1.74 4.63-31.65-11.86h14.1zm-76.88-28.83h-14.1l-19.27-7.23 1.73-4.63zm-53.34-20l-1.73 4.63-21.7-8.13 1.74-4.64z" stroke="#333" stroke-width=".05" fill="#333"/><path d="M1279.97 882.5h.98l1.82-.08-1.24 3.3-5.2-1.96.5-1.36z" fill="#333"/><path stroke="#333" stroke-width=".05" fill="#333"/><path d="M1483.68 956.24l-.5 1.36-3.15-.1h-.98l-1.82.08 1.24-3.3z" fill="#333"/><path stroke="#333" stroke-width=".05" fill="#333"/><g><use xlink:href="#E" transform="matrix(1,0,0,1,1327.575,909.2) translate(0 14.4)"/></g><path d="M856.23 502.15l-35.42 60.1c-3.32-1.95-7.6-.85-9.57 2.5-1.97 3.32-.86 7.6 2.47 9.57l-24.46 41.5c-3.33-1.96-7.62-.86-9.58 2.48-1.96 3.33-.85 7.62 2.48 9.58l-8.1 13.73c-3.32-1.95-7.62-.84-9.58 2.5-1.96 3.32-.85 7.6 2.48 9.57L684.8 793.05c-3.33-1.96-7.63-.85-9.6 2.48-1.95 3.33-.84 7.62 2.5 9.6l-12.95 21.94c-3.33-1.97-7.62-.86-9.6 2.47-1.95 3.34-.84 7.63 2.5 9.6L541.26 1036.6" stroke="#333" stroke-width="5" fill="none"/><path d="M857.63 496.6l-.04.38-.1 3v.45l.1 2.6-3.53-2.08 2.82-4.8zM543.43 1037.8l-2.82 4.8-1.42-.85h.82v-5h-1.7l.87-1.47z" stroke="#333" stroke-width=".05" fill="#333"/><defs><path fill="#3a414a" d="M169-182c-1-43-94-46-97-3 18 66 151 10 154 114 3 95-165 93-204 36-6-8-10-19-12-30l50-8c3 46 112 56 116 5-17-69-150-10-154-114-4-87 153-88 188-35 5 8 8 18 10 28" id="F"/><path fill="#3a414a" d="M123 10C108 53 80 86 19 72V37c35 8 53-11 59-39L3-190h52l48 148c12-52 28-100 44-148h51" id="G"/><path fill="#3a414a" d="M137-138c1-29-70-34-71-4 15 46 118 7 119 86 1 83-164 76-172 9l43-7c4 19 20 25 44 25 33 8 57-30 24-41C81-84 22-81 20-136c-2-80 154-74 161-7" id="H"/><path fill="#3a414a" d="M115-3C79 11 28 4 28-45v-112H4v-33h27l15-45h31v45h36v33H77v99c-1 23 16 31 38 25v30" id="I"/><path fill="#3a414a" d="M185-48c-13 30-37 53-82 52C43 2 14-33 14-96s30-98 90-98c62 0 83 45 84 108H66c0 31 8 55 39 56 18 0 30-7 34-22zm-45-69c5-46-57-63-70-21-2 6-4 13-4 21h74" id="J"/><path fill="#3a414a" d="M220-157c-53 9-28 100-34 157h-49v-107c1-27-5-49-29-50C55-147 81-57 75 0H25l-1-190h47c2 12-1 28 3 38 10-53 101-56 108 0 13-22 24-43 59-42 82 1 51 116 57 194h-49v-107c-1-25-5-48-29-50" id="K"/><g id="a"><use transform="matrix(0.06234567901234565,0,0,0.06234567901234565,0,0)" xlink:href="#F"/><use transform="matrix(0.06234567901234565,0,0,0.06234567901234565,14.962962962962957,0)" xlink:href="#G"/><use transform="matrix(0.06234567901234565,0,0,0.06234567901234565,27.432098765432087,0)" xlink:href="#H"/><use transform="matrix(0.06234567901234565,0,0,0.06234567901234565,39.90123456790122,0)" xlink:href="#I"/><use transform="matrix(0.06234567901234565,0,0,0.06234567901234565,47.320370370370355,0)" xlink:href="#J"/><use transform="matrix(0.06234567901234565,0,0,0.06234567901234565,59.78950617283949,0)" xlink:href="#K"/></g><path d="M169-182c-1-43-94-46-97-3 18 66 151 10 154 114 3 95-165 93-204 36-6-8-10-19-12-30l50-8c3 46 112 56 116 5-17-69-150-10-154-114-4-87 153-88 188-35 5 8 8 18 10 28" id="L"/><path d="M185-48c-13 30-37 53-82 52C43 2 14-33 14-96s30-98 90-98c62 0 83 45 84 108H66c0 31 8 55 39 56 18 0 30-7 34-22zm-45-69c5-46-57-63-70-21-2 6-4 13-4 21h74" id="M"/><path d="M25 0v-261h50V0H25" id="N"/><path d="M135-150c-39-12-60 13-60 57V0H25l-1-190h47c2 13-1 29 3 40 6-28 27-53 61-41v41" id="O"/><g id="b"><use transform="matrix(0.06234567901234567,0,0,0.06234567901234567,0,0)" xlink:href="#L"/><use transform="matrix(0.06234567901234567,0,0,0.06234567901234567,14.96296296296296,0)" xlink:href="#M"/><use transform="matrix(0.06234567901234567,0,0,0.06234567901234567,27.432098765432094,0)" xlink:href="#N"/><use transform="matrix(0.06234567901234567,0,0,0.06234567901234567,33.66666666666666,0)" xlink:href="#N"/><use transform="matrix(0.06234567901234567,0,0,0.06234567901234567,39.90123456790123,0)" xlink:href="#M"/><use transform="matrix(0.06234567901234567,0,0,0.06234567901234567,52.37037037037036,0)" xlink:href="#O"/></g><path d="M199 0l-22-63H83L61 0H9l90-248h61L250 0h-51zm-33-102l-36-108c-10 38-24 72-36 108h72" id="P"/><path d="M88-194c31-1 46 15 58 34l-1-101h50l1 261h-48c-2-10 0-23-3-31C134-8 116 4 84 4 32 4 16-41 15-95c0-56 19-97 73-99zm17 164c33 0 40-30 41-66 1-37-9-64-41-64s-38 30-39 65c0 43 13 65 39 65" id="Q"/><path d="M220-157c-53 9-28 100-34 157h-49v-107c1-27-5-49-29-50C55-147 81-57 75 0H25l-1-190h47c2 12-1 28 3 38 10-53 101-56 108 0 13-22 24-43 59-42 82 1 51 116 57 194h-49v-107c-1-25-5-48-29-50" id="R"/><path d="M25-224v-37h50v37H25zM25 0v-190h50V0H25" id="S"/><path d="M135-194c87-1 58 113 63 194h-50c-7-57 23-157-34-157-59 0-34 97-39 157H25l-1-190h47c2 12-1 28 3 38 12-26 28-41 61-42" id="T"/><g id="c"><use transform="matrix(0.06234567901234567,0,0,0.06234567901234567,0,0)" xlink:href="#P"/><use transform="matrix(0.06234567901234567,0,0,0.06234567901234567,16.147530864197527,0)" xlink:href="#Q"/><use transform="matrix(0.06234567901234567,0,0,0.06234567901234567,29.80123456790123,0)" xlink:href="#R"/><use transform="matrix(0.06234567901234567,0,0,0.06234567901234567,49.75185185185184,0)" xlink:href="#S"/><use transform="matrix(0.06234567901234567,0,0,0.06234567901234567,55.98641975308641,0)" xlink:href="#T"/></g><g id="d"><use transform="matrix(0.05,0,0,0.05,0,0)" xlink:href="#P"/><use transform="matrix(0.05,0,0,0.05,12.950000000000001,0)" xlink:href="#Q"/><use transform="matrix(0.05,0,0,0.05,23.900000000000002,0)" xlink:href="#Q"/></g><path d="M135-194c53 0 70 44 70 98 0 56-19 98-73 100-31 1-45-17-59-34 3 33 2 69 2 105H25l-1-265h48c2 10 0 23 3 31 11-24 29-35 60-35zM114-30c33 0 39-31 40-66 0-38-9-64-40-64-56 0-55 130 0 130" id="U"/><path d="M110-194c64 0 96 36 96 99 0 64-35 99-97 99-61 0-95-36-95-99 0-62 34-99 96-99zm-1 164c35 0 45-28 45-65 0-40-10-65-43-65-34 0-45 26-45 65 0 36 10 65 43 65" id="V"/><path d="M85 4C-2 5 27-109 22-190h50c7 57-23 150 33 157 60-5 35-97 40-157h50l1 190h-47c-2-12 1-28-3-38-12 25-28 42-61 42" id="W"/><path d="M190-63c-7 42-38 67-86 67-59 0-84-38-90-98-12-110 154-137 174-36l-49 2c-2-19-15-32-35-32-30 0-35 28-38 64-6 74 65 87 74 30" id="X"/><path d="M115-3C79 11 28 4 28-45v-112H4v-33h27l15-45h31v45h36v33H77v99c-1 23 16 31 38 25v30" id="Y"/><path d="M137-138c1-29-70-34-71-4 15 46 118 7 119 86 1 83-164 76-172 9l43-7c4 19 20 25 44 25 33 8 57-30 24-41C81-84 22-81 20-136c-2-80 154-74 161-7" id="Z"/><g id="e"><use transform="matrix(0.05,0,0,0.05,0,0)" xlink:href="#U"/><use transform="matrix(0.05,0,0,0.05,10.950000000000001,0)" xlink:href="#O"/><use transform="matrix(0.05,0,0,0.05,17.950000000000003,0)" xlink:href="#V"/><use transform="matrix(0.05,0,0,0.05,28.900000000000006,0)" xlink:href="#Q"/><use transform="matrix(0.05,0,0,0.05,39.85000000000001,0)" xlink:href="#W"/><use transform="matrix(0.05,0,0,0.05,50.80000000000001,0)" xlink:href="#X"/><use transform="matrix(0.05,0,0,0.05,60.80000000000001,0)" xlink:href="#Y"/><use transform="matrix(0.05,0,0,0.05,66.75000000000001,0)" xlink:href="#Z"/></g><path d="M24-248c120-7 223 5 221 122C244-46 201 0 124 0H24v-248zM76-40c74 7 117-18 117-86 0-67-45-88-117-82v168" id="aa"/><g id="f"><use transform="matrix(0.05,0,0,0.05,0,0)" xlink:href="#aa"/><use transform="matrix(0.05,0,0,0.05,12.950000000000001,0)" xlink:href="#M"/><use transform="matrix(0.05,0,0,0.05,22.950000000000003,0)" xlink:href="#N"/><use transform="matrix(0.05,0,0,0.05,27.950000000000003,0)" xlink:href="#M"/><use transform="matrix(0.05,0,0,0.05,37.95,0)" xlink:href="#Y"/><use transform="matrix(0.05,0,0,0.05,43.900000000000006,0)" xlink:href="#M"/></g><path d="M24 0v-248h195v40H76v63h132v40H76v65h150V0H24" id="ab"/><g id="g"><use transform="matrix(0.05,0,0,0.05,0,0)" xlink:href="#ab"/><use transform="matrix(0.05,0,0,0.05,12,0)" xlink:href="#Q"/><use transform="matrix(0.05,0,0,0.05,22.950000000000003,0)" xlink:href="#S"/><use transform="matrix(0.05,0,0,0.05,27.950000000000003,0)" xlink:href="#Y"/></g><path d="M121-226c-27-7-43 5-38 36h38v33H83V0H34v-157H6v-33h28c-9-59 32-81 87-68v32" id="ac"/><g id="h"><use transform="matrix(0.05,0,0,0.05,0,0)" xlink:href="#S"/><use transform="matrix(0.05,0,0,0.05,5,0)" xlink:href="#T"/><use transform="matrix(0.05,0,0,0.05,15.950000000000001,0)" xlink:href="#ac"/><use transform="matrix(0.05,0,0,0.05,21.900000000000002,0)" xlink:href="#V"/></g><g id="i"><use transform="matrix(0.05,0,0,0.05,0,0)" xlink:href="#U"/><use transform="matrix(0.05,0,0,0.05,10.950000000000001,0)" xlink:href="#O"/><use transform="matrix(0.05,0,0,0.05,17.950000000000003,0)" xlink:href="#V"/><use transform="matrix(0.05,0,0,0.05,28.900000000000006,0)" xlink:href="#Q"/><use transform="matrix(0.05,0,0,0.05,39.85000000000001,0)" xlink:href="#W"/><use transform="matrix(0.05,0,0,0.05,50.80000000000001,0)" xlink:href="#X"/><use transform="matrix(0.05,0,0,0.05,60.80000000000001,0)" xlink:href="#Y"/><use transform="matrix(0.05,0,0,0.05,66.75000000000001,0)" xlink:href="#Z"/></g><path d="M133-34C117-15 103 5 69 4 32 3 11-16 11-54c-1-60 55-63 116-61 1-26-3-47-28-47-18 1-26 9-28 27l-52-2c7-38 36-58 82-57s74 22 75 68l1 82c-1 14 12 18 25 15v27c-30 8-71 5-69-32zm-48 3c29 0 43-24 42-57-32 0-66-3-65 30 0 17 8 27 23 27" id="ad"/><path d="M114-157C55-157 80-60 75 0H25v-261h50l-1 109c12-26 28-41 61-42 86-1 58 113 63 194h-50c-7-57 23-157-34-157" id="ae"/><g id="j"><use transform="matrix(0.05,0,0,0.05,0,0)" xlink:href="#L"/><use transform="matrix(0.05,0,0,0.05,12,0)" xlink:href="#M"/><use transform="matrix(0.05,0,0,0.05,22,0)" xlink:href="#ad"/><use transform="matrix(0.05,0,0,0.05,32,0)" xlink:href="#O"/><use transform="matrix(0.05,0,0,0.05,39,0)" xlink:href="#X"/><use transform="matrix(0.05,0,0,0.05,49,0)" xlink:href="#ae"/></g><g id="k"><use transform="matrix(0.05,0,0,0.05,0,0)" xlink:href="#ad"/><use transform="matrix(0.05,0,0,0.05,10,0)" xlink:href="#X"/><use transform="matrix(0.05,0,0,0.05,20,0)" xlink:href="#X"/><use transform="matrix(0.05,0,0,0.05,30,0)" xlink:href="#V"/><use transform="matrix(0.05,0,0,0.05,40.95,0)" xlink:href="#W"/><use transform="matrix(0.05,0,0,0.05,51.900000000000006,0)" xlink:href="#T"/><use transform="matrix(0.05,0,0,0.05,62.85,0)" xlink:href="#Y"/></g><g id="l"><use transform="matrix(0.05,0,0,0.05,0,0)" xlink:href="#S"/><use transform="matrix(0.05,0,0,0.05,5,0)" xlink:href="#T"/><use transform="matrix(0.05,0,0,0.05,15.950000000000001,0)" xlink:href="#ac"/><use transform="matrix(0.05,0,0,0.05,21.900000000000002,0)" xlink:href="#V"/></g><path d="M24 0v-248h52v208h133V0H24" id="af"/><path d="M195-6C206 82 75 100 31 46c-4-6-6-13-8-21l49-6c3 16 16 24 34 25 40 0 42-37 40-79-11 22-30 35-61 35-53 0-70-43-70-97 0-56 18-96 73-97 30 0 46 14 59 34l2-30h47zm-90-29c32 0 41-27 41-63 0-35-9-62-40-62-32 0-39 29-40 63 0 36 9 62 39 62" id="ag"/><g id="m"><use transform="matrix(0.05,0,0,0.05,0,0)" xlink:href="#af"/><use transform="matrix(0.05,0,0,0.05,10.950000000000001,0)" xlink:href="#V"/><use transform="matrix(0.05,0,0,0.05,21.900000000000002,0)" xlink:href="#ag"/><use transform="matrix(0.05,0,0,0.05,32.85,0)" xlink:href="#S"/><use transform="matrix(0.05,0,0,0.05,37.85,0)" xlink:href="#T"/></g><g id="n"><use transform="matrix(0.05,0,0,0.05,0,0)" xlink:href="#af"/><use transform="matrix(0.05,0,0,0.05,10.950000000000001,0)" xlink:href="#V"/><use transform="matrix(0.05,0,0,0.05,21.900000000000002,0)" xlink:href="#ag"/><use transform="matrix(0.05,0,0,0.05,32.85,0)" xlink:href="#V"/><use transform="matrix(0.05,0,0,0.05,43.800000000000004,0)" xlink:href="#W"/><use transform="matrix(0.05,0,0,0.05,54.75,0)" xlink:href="#Y"/></g><path d="M67-125c0 53 21 87 73 88 37 1 54-22 65-47l45 17C233-25 199 4 140 4 58 4 20-42 15-125 8-235 124-281 211-232c18 10 29 29 36 50l-46 12c-8-25-30-41-62-41-52 0-71 34-72 86" id="ah"/><g id="o"><use transform="matrix(0.05,0,0,0.05,0,0)" xlink:href="#ah"/><use transform="matrix(0.05,0,0,0.05,12.950000000000001,0)" xlink:href="#V"/><use transform="matrix(0.05,0,0,0.05,23.900000000000002,0)" xlink:href="#T"/><use transform="matrix(0.05,0,0,0.05,34.85,0)" xlink:href="#Y"/><use transform="matrix(0.05,0,0,0.05,40.800000000000004,0)" xlink:href="#ad"/><use transform="matrix(0.05,0,0,0.05,50.800000000000004,0)" xlink:href="#X"/><use transform="matrix(0.05,0,0,0.05,60.800000000000004,0)" xlink:href="#Y"/></g><g id="p"><use transform="matrix(0.05,0,0,0.05,0,0)" xlink:href="#Z"/><use transform="matrix(0.05,0,0,0.05,10,0)" xlink:href="#M"/><use transform="matrix(0.05,0,0,0.05,20,0)" xlink:href="#N"/><use transform="matrix(0.05,0,0,0.05,25,0)" xlink:href="#N"/><use transform="matrix(0.05,0,0,0.05,30,0)" xlink:href="#M"/><use transform="matrix(0.05,0,0,0.05,40,0)" xlink:href="#O"/><use transform="matrix(0.05,0,0,0.05,47,0)" xlink:href="#Z"/></g><path d="M147 0H94L2-248h55l64 206c17-72 42-137 63-206h54" id="ai"/><path d="M231 0h-52l-39-155L100 0H48L-1-190h46L77-45c9-52 24-97 36-145h53l37 145 32-145h46" id="aj"/><g id="q"><use transform="matrix(0.05,0,0,0.05,0,0)" xlink:href="#ai"/><use transform="matrix(0.05,0,0,0.05,11.65,0)" xlink:href="#S"/><use transform="matrix(0.05,0,0,0.05,16.65,0)" xlink:href="#M"/><use transform="matrix(0.05,0,0,0.05,26.649999999999995,0)" xlink:href="#aj"/></g><g id="r"><use transform="matrix(0.06234567901234567,0,0,0.06234567901234567,0,0)" xlink:href="#ah"/><use transform="matrix(0.06234567901234567,0,0,0.06234567901234567,16.147530864197527,0)" xlink:href="#W"/><use transform="matrix(0.06234567901234567,0,0,0.06234567901234567,29.80123456790123,0)" xlink:href="#Z"/><use transform="matrix(0.06234567901234567,0,0,0.06234567901234567,42.27037037037036,0)" xlink:href="#Y"/><use transform="matrix(0.06234567901234567,0,0,0.06234567901234567,49.689506172839494,0)" xlink:href="#V"/><use transform="matrix(0.06234567901234567,0,0,0.06234567901234567,63.3432098765432,0)" xlink:href="#R"/><use transform="matrix(0.06234567901234567,0,0,0.06234567901234567,83.2938271604938,0)" xlink:href="#M"/><use transform="matrix(0.06234567901234567,0,0,0.06234567901234567,95.76296296296294,0)" xlink:href="#O"/></g><g id="s"><use transform="matrix(0.05,0,0,0.05,0,0)" xlink:href="#Z"/><use transform="matrix(0.05,0,0,0.05,10,0)" xlink:href="#M"/><use transform="matrix(0.05,0,0,0.05,20,0)" xlink:href="#ad"/><use transform="matrix(0.05,0,0,0.05,30,0)" xlink:href="#O"/><use transform="matrix(0.05,0,0,0.05,37,0)" xlink:href="#X"/><use transform="matrix(0.05,0,0,0.05,47,0)" xlink:href="#ae"/></g><g id="t"><use transform="matrix(0.05,0,0,0.05,0,0)" xlink:href="#P"/><use transform="matrix(0.05,0,0,0.05,12.950000000000001,0)" xlink:href="#Q"/><use transform="matrix(0.05,0,0,0.05,23.900000000000002,0)" xlink:href="#Q"/></g><g id="u"><use transform="matrix(0.05,0,0,0.05,0,0)" xlink:href="#S"/><use transform="matrix(0.05,0,0,0.05,5,0)" xlink:href="#T"/><use transform="matrix(0.05,0,0,0.05,15.950000000000001,0)" xlink:href="#ac"/><use transform="matrix(0.05,0,0,0.05,21.900000000000002,0)" xlink:href="#V"/></g><g id="v"><use transform="matrix(0.05,0,0,0.05,0,0)" xlink:href="#ac"/><use transform="matrix(0.05,0,0,0.05,5.95,0)" xlink:href="#V"/><use transform="matrix(0.05,0,0,0.05,16.900000000000002,0)" xlink:href="#O"/></g><g id="w"><use transform="matrix(0.05,0,0,0.05,0,0)" xlink:href="#Z"/><use transform="matrix(0.05,0,0,0.05,10,0)" xlink:href="#M"/><use transform="matrix(0.05,0,0,0.05,20,0)" xlink:href="#N"/><use transform="matrix(0.05,0,0,0.05,25,0)" xlink:href="#N"/><use transform="matrix(0.05,0,0,0.05,30,0)" xlink:href="#M"/><use transform="matrix(0.05,0,0,0.05,40,0)" xlink:href="#O"/><use transform="matrix(0.05,0,0,0.05,47,0)" xlink:href="#Z"/></g><g id="x"><use transform="matrix(0.05,0,0,0.05,0,0)" xlink:href="#R"/><use transform="matrix(0.05,0,0,0.05,16,0)" xlink:href="#ad"/><use transform="matrix(0.05,0,0,0.05,26,0)" xlink:href="#T"/><use transform="matrix(0.05,0,0,0.05,36.95,0)" xlink:href="#ad"/><use transform="matrix(0.05,0,0,0.05,46.95,0)" xlink:href="#ag"/><use transform="matrix(0.05,0,0,0.05,57.900000000000006,0)" xlink:href="#M"/></g><g id="y"><use transform="matrix(0.05,0,0,0.05,0,0)" xlink:href="#X"/><use transform="matrix(0.05,0,0,0.05,10,0)" xlink:href="#ad"/><use transform="matrix(0.05,0,0,0.05,20,0)" xlink:href="#Y"/><use transform="matrix(0.05,0,0,0.05,25.950000000000003,0)" xlink:href="#M"/><use transform="matrix(0.05,0,0,0.05,35.95,0)" xlink:href="#ag"/><use transform="matrix(0.05,0,0,0.05,46.900000000000006,0)" xlink:href="#V"/><use transform="matrix(0.05,0,0,0.05,57.85,0)" xlink:href="#O"/><use transform="matrix(0.05,0,0,0.05,64.85000000000001,0)" xlink:href="#S"/><use transform="matrix(0.05,0,0,0.05,69.85000000000001,0)" xlink:href="#M"/><use transform="matrix(0.05,0,0,0.05,79.85000000000001,0)" xlink:href="#Z"/></g><path d="M123 10C108 53 80 86 19 72V37c35 8 53-11 59-39L3-190h52l48 148c12-52 28-100 44-148h51" id="ak"/><g id="z"><use transform="matrix(0.05,0,0,0.05,0,0)" xlink:href="#ai"/><use transform="matrix(0.05,0,0,0.05,11,0)" xlink:href="#M"/><use transform="matrix(0.05,0,0,0.05,21,0)" xlink:href="#O"/><use transform="matrix(0.05,0,0,0.05,28,0)" xlink:href="#S"/><use transform="matrix(0.05,0,0,0.05,33,0)" xlink:href="#ac"/><use transform="matrix(0.05,0,0,0.05,38.95,0)" xlink:href="#ak"/></g><g id="A"><use transform="matrix(0.05,0,0,0.05,0,0)" xlink:href="#U"/><use transform="matrix(0.05,0,0,0.05,10.950000000000001,0)" xlink:href="#ad"/><use transform="matrix(0.05,0,0,0.05,20.950000000000003,0)" xlink:href="#Z"/><use transform="matrix(0.05,0,0,0.05,30.950000000000003,0)" xlink:href="#Z"/><use transform="matrix(0.05,0,0,0.05,40.95,0)" xlink:href="#aj"/><use transform="matrix(0.05,0,0,0.05,54.95,0)" xlink:href="#V"/><use transform="matrix(0.05,0,0,0.05,65.9,0)" xlink:href="#O"/><use transform="matrix(0.05,0,0,0.05,72.9,0)" xlink:href="#Q"/></g><g id="B"><use transform="matrix(0.05,0,0,0.05,0,0)" xlink:href="#aa"/><use transform="matrix(0.05,0,0,0.05,12.950000000000001,0)" xlink:href="#S"/><use transform="matrix(0.05,0,0,0.05,17.950000000000003,0)" xlink:href="#Z"/><use transform="matrix(0.05,0,0,0.05,27.950000000000003,0)" xlink:href="#U"/><use transform="matrix(0.05,0,0,0.05,38.900000000000006,0)" xlink:href="#N"/><use transform="matrix(0.05,0,0,0.05,43.900000000000006,0)" xlink:href="#ad"/><use transform="matrix(0.05,0,0,0.05,53.900000000000006,0)" xlink:href="#ak"/></g><g id="C"><use transform="matrix(0.05,0,0,0.05,0,0)" xlink:href="#N"/><use transform="matrix(0.05,0,0,0.05,5,0)" xlink:href="#V"/><use transform="matrix(0.05,0,0,0.05,15.950000000000001,0)" xlink:href="#ag"/><use transform="matrix(0.05,0,0,0.05,26.900000000000002,0)" xlink:href="#S"/><use transform="matrix(0.05,0,0,0.05,31.900000000000002,0)" xlink:href="#T"/></g><g id="D"><use transform="matrix(0.05,0,0,0.05,0,0)" xlink:href="#M"/><use transform="matrix(0.05,0,0,0.05,10,0)" xlink:href="#O"/><use transform="matrix(0.05,0,0,0.05,17,0)" xlink:href="#O"/><use transform="matrix(0.05,0,0,0.05,24,0)" xlink:href="#V"/><use transform="matrix(0.05,0,0,0.05,34.95,0)" xlink:href="#O"/></g><path d="M15-91v-56l181-69v40L49-119l147 57v40" id="al"/><path d="M24 0v-248h52V0H24" id="am"/><path d="M15-22v-40l146-57-146-57v-40l181 69v56" id="an"/><g id="E"><use transform="matrix(0.05,0,0,0.05,0,0)" xlink:href="#al"/><use transform="matrix(0.05,0,0,0.05,10.5,0)" xlink:href="#al"/><use transform="matrix(0.05,0,0,0.05,21,0)" xlink:href="#am"/><use transform="matrix(0.05,0,0,0.05,26,0)" xlink:href="#T"/><use transform="matrix(0.05,0,0,0.05,36.95,0)" xlink:href="#X"/><use transform="matrix(0.05,0,0,0.05,46.95,0)" xlink:href="#N"/><use transform="matrix(0.05,0,0,0.05,51.95,0)" xlink:href="#W"/><use transform="matrix(0.05,0,0,0.05,62.900000000000006,0)" xlink:href="#Q"/><use transform="matrix(0.05,0,0,0.05,73.85000000000001,0)" xlink:href="#M"/><use transform="matrix(0.05,0,0,0.05,83.85000000000001,0)" xlink:href="#an"/><use transform="matrix(0.05,0,0,0.05,94.35000000000001,0)" xlink:href="#an"/></g></defs></g></svg>